<svg xmlns="http://www.w3.org/2000/svg" xmlns:xlink="http://www.w3.org/1999/xlink" contentStyleType="text/css" height="562px" preserveAspectRatio="none" style="width:519px;height:562px;background:#FFFFFF;" version="1.1" viewBox="0 0 519 562" width="519px" zoomAndPan="magnify"><defs/><g><!--class Veh?culo--><g id="elem_Veh&#237;culo"><rect codeLine="1" fill="#F1F1F1" height="48" id="Veh&#237;culo" rx="2.5" ry="2.5" style="stroke:#181818;stroke-width:0.5;" width="91.9785" x="210" y="7"/><ellipse cx="225" cy="23" fill="#ADD1B2" rx="11" ry="11" style="stroke:#181818;stroke-width:1.0;"/><path d="M227.9688,28.6406 Q227.3906,28.9375 226.75,29.0781 Q226.1094,29.2344 225.4063,29.2344 Q222.9063,29.2344 221.5781,27.5938 Q220.2656,25.9375 220.2656,22.8125 Q220.2656,19.6875 221.5781,18.0313 Q222.9063,16.375 225.4063,16.375 Q226.1094,16.375 226.75,16.5313 Q227.4063,16.6875 227.9688,16.9844 L227.9688,19.7031 Q227.3438,19.125 226.75,18.8594 Q226.1563,18.5781 225.5313,18.5781 Q224.1875,18.5781 223.5,19.6563 Q222.8125,20.7188 222.8125,22.8125 Q222.8125,24.9063 223.5,25.9844 Q224.1875,27.0469 225.5313,27.0469 Q226.1563,27.0469 226.75,26.7813 Q227.3438,26.5 227.9688,25.9219 L227.9688,28.6406 Z " fill="#000000"/><text fill="#000000" font-family="sans-serif" font-size="14" lengthAdjust="spacing" textLength="59.9785" x="239" y="27.8467">Veh&#237;culo</text><line style="stroke:#181818;stroke-width:0.5;" x1="211" x2="300.9785" y1="39" y2="39"/><line style="stroke:#181818;stroke-width:0.5;" x1="211" x2="300.9785" y1="47" y2="47"/></g><!--class Conductor--><g id="elem_Conductor"><rect codeLine="4" fill="#F1F1F1" height="48" id="Conductor" rx="2.5" ry="2.5" style="stroke:#181818;stroke-width:0.5;" width="104.4814" x="26" y="132"/><ellipse cx="41" cy="148" fill="#ADD1B2" rx="11" ry="11" style="stroke:#181818;stroke-width:1.0;"/><path d="M43.9688,153.6406 Q43.3906,153.9375 42.75,154.0781 Q42.1094,154.2344 41.4063,154.2344 Q38.9063,154.2344 37.5781,152.5938 Q36.2656,150.9375 36.2656,147.8125 Q36.2656,144.6875 37.5781,143.0313 Q38.9063,141.375 41.4063,141.375 Q42.1094,141.375 42.75,141.5313 Q43.4063,141.6875 43.9688,141.9844 L43.9688,144.7031 Q43.3438,144.125 42.75,143.8594 Q42.1563,143.5781 41.5313,143.5781 Q40.1875,143.5781 39.5,144.6563 Q38.8125,145.7188 38.8125,147.8125 Q38.8125,149.9063 39.5,150.9844 Q40.1875,152.0469 41.5313,152.0469 Q42.1563,152.0469 42.75,151.7813 Q43.3438,151.5 43.9688,150.9219 L43.9688,153.6406 Z " fill="#000000"/><text fill="#000000" font-family="sans-serif" font-size="14" lengthAdjust="spacing" textLength="72.4814" x="55" y="152.8467">Conductor</text><line style="stroke:#181818;stroke-width:0.5;" x1="27" x2="129.4814" y1="164" y2="164"/><line style="stroke:#181818;stroke-width:0.5;" x1="27" x2="129.4814" y1="172" y2="172"/></g><!--class Horario--><g id="elem_Horario"><rect codeLine="7" fill="#F1F1F1" height="48" id="Horario" rx="2.5" ry="2.5" style="stroke:#181818;stroke-width:0.5;" width="83.6387" x="7" y="257"/><ellipse cx="22" cy="273" fill="#ADD1B2" rx="11" ry="11" style="stroke:#181818;stroke-width:1.0;"/><path d="M24.9688,278.6406 Q24.3906,278.9375 23.75,279.0781 Q23.1094,279.2344 22.4063,279.2344 Q19.9063,279.2344 18.5781,277.5938 Q17.2656,275.9375 17.2656,272.8125 Q17.2656,269.6875 18.5781,268.0313 Q19.9063,266.375 22.4063,266.375 Q23.1094,266.375 23.75,266.5313 Q24.4063,266.6875 24.9688,266.9844 L24.9688,269.7031 Q24.3438,269.125 23.75,268.8594 Q23.1563,268.5781 22.5313,268.5781 Q21.1875,268.5781 20.5,269.6563 Q19.8125,270.7188 19.8125,272.8125 Q19.8125,274.9063 20.5,275.9844 Q21.1875,277.0469 22.5313,277.0469 Q23.1563,277.0469 23.75,276.7813 Q24.3438,276.5 24.9688,275.9219 L24.9688,278.6406 Z " fill="#000000"/><text fill="#000000" font-family="sans-serif" font-size="14" lengthAdjust="spacing" textLength="51.6387" x="36" y="277.8467">Horario</text><line style="stroke:#181818;stroke-width:0.5;" x1="8" x2="89.6387" y1="289" y2="289"/><line style="stroke:#181818;stroke-width:0.5;" x1="8" x2="89.6387" y1="297" y2="297"/></g><!--class Empresa--><g id="elem_Empresa"><rect codeLine="10" fill="#F1F1F1" height="48" id="Empresa" rx="2.5" ry="2.5" style="stroke:#181818;stroke-width:0.5;" width="93.6123" x="419" y="132"/><ellipse cx="434" cy="148" fill="#ADD1B2" rx="11" ry="11" style="stroke:#181818;stroke-width:1.0;"/><path d="M436.9688,153.6406 Q436.3906,153.9375 435.75,154.0781 Q435.1094,154.2344 434.4063,154.2344 Q431.9063,154.2344 430.5781,152.5938 Q429.2656,150.9375 429.2656,147.8125 Q429.2656,144.6875 430.5781,143.0313 Q431.9063,141.375 434.4063,141.375 Q435.1094,141.375 435.75,141.5313 Q436.4063,141.6875 436.9688,141.9844 L436.9688,144.7031 Q436.3438,144.125 435.75,143.8594 Q435.1563,143.5781 434.5313,143.5781 Q433.1875,143.5781 432.5,144.6563 Q431.8125,145.7188 431.8125,147.8125 Q431.8125,149.9063 432.5,150.9844 Q433.1875,152.0469 434.5313,152.0469 Q435.1563,152.0469 435.75,151.7813 Q436.3438,151.5 436.9688,150.9219 L436.9688,153.6406 Z " fill="#000000"/><text fill="#000000" font-family="sans-serif" font-size="14" lengthAdjust="spacing" textLength="61.6123" x="448" y="152.8467">Empresa</text><line style="stroke:#181818;stroke-width:0.5;" x1="420" x2="511.6123" y1="164" y2="164"/><line style="stroke:#181818;stroke-width:0.5;" x1="420" x2="511.6123" y1="172" y2="172"/></g><!--class Incidencia--><g id="elem_Incidencia"><rect codeLine="13" fill="#F1F1F1" height="48" id="Incidencia" rx="2.5" ry="2.5" style="stroke:#181818;stroke-width:0.5;" width="103.1279" x="317.5" y="257"/><ellipse cx="332.5" cy="273" fill="#ADD1B2" rx="11" ry="11" style="stroke:#181818;stroke-width:1.0;"/><path d="M335.4688,278.6406 Q334.8906,278.9375 334.25,279.0781 Q333.6094,279.2344 332.9063,279.2344 Q330.4063,279.2344 329.0781,277.5938 Q327.7656,275.9375 327.7656,272.8125 Q327.7656,269.6875 329.0781,268.0313 Q330.4063,266.375 332.9063,266.375 Q333.6094,266.375 334.25,266.5313 Q334.9063,266.6875 335.4688,266.9844 L335.4688,269.7031 Q334.8438,269.125 334.25,268.8594 Q333.6563,268.5781 333.0313,268.5781 Q331.6875,268.5781 331,269.6563 Q330.3125,270.7188 330.3125,272.8125 Q330.3125,274.9063 331,275.9844 Q331.6875,277.0469 333.0313,277.0469 Q333.6563,277.0469 334.25,276.7813 Q334.8438,276.5 335.4688,275.9219 L335.4688,278.6406 Z " fill="#000000"/><text fill="#000000" font-family="sans-serif" font-size="14" lengthAdjust="spacing" textLength="71.1279" x="346.5" y="277.8467">Incidencia</text><line style="stroke:#181818;stroke-width:0.5;" x1="318.5" x2="419.6279" y1="289" y2="289"/><line style="stroke:#181818;stroke-width:0.5;" x1="318.5" x2="419.6279" y1="297" y2="297"/></g><!--class Tarifa--><g id="elem_Tarifa"><rect codeLine="16" fill="#F1F1F1" height="48" id="Tarifa" rx="2.5" ry="2.5" style="stroke:#181818;stroke-width:0.5;" width="72.2842" x="150" y="382"/><ellipse cx="165" cy="398" fill="#ADD1B2" rx="11" ry="11" style="stroke:#181818;stroke-width:1.0;"/><path d="M167.9688,403.6406 Q167.3906,403.9375 166.75,404.0781 Q166.1094,404.2344 165.4063,404.2344 Q162.9063,404.2344 161.5781,402.5938 Q160.2656,400.9375 160.2656,397.8125 Q160.2656,394.6875 161.5781,393.0313 Q162.9063,391.375 165.4063,391.375 Q166.1094,391.375 166.75,391.5313 Q167.4063,391.6875 167.9688,391.9844 L167.9688,394.7031 Q167.3438,394.125 166.75,393.8594 Q166.1563,393.5781 165.5313,393.5781 Q164.1875,393.5781 163.5,394.6563 Q162.8125,395.7188 162.8125,397.8125 Q162.8125,399.9063 163.5,400.9844 Q164.1875,402.0469 165.5313,402.0469 Q166.1563,402.0469 166.75,401.7813 Q167.3438,401.5 167.9688,400.9219 L167.9688,403.6406 Z " fill="#000000"/><text fill="#000000" font-family="sans-serif" font-size="14" lengthAdjust="spacing" textLength="40.2842" x="179" y="402.8467">Tarifa</text><line style="stroke:#181818;stroke-width:0.5;" x1="151" x2="221.2842" y1="414" y2="414"/><line style="stroke:#181818;stroke-width:0.5;" x1="151" x2="221.2842" y1="422" y2="422"/></g><!--class Servicio--><g id="elem_Servicio"><rect codeLine="19" fill="#F1F1F1" height="48" id="Servicio" rx="2.5" ry="2.5" style="stroke:#181818;stroke-width:0.5;" width="87.583" x="73" y="507"/><ellipse cx="88" cy="523" fill="#ADD1B2" rx="11" ry="11" style="stroke:#181818;stroke-width:1.0;"/><path d="M90.9688,528.6406 Q90.3906,528.9375 89.75,529.0781 Q89.1094,529.2344 88.4063,529.2344 Q85.9063,529.2344 84.5781,527.5938 Q83.2656,525.9375 83.2656,522.8125 Q83.2656,519.6875 84.5781,518.0313 Q85.9063,516.375 88.4063,516.375 Q89.1094,516.375 89.75,516.5313 Q90.4063,516.6875 90.9688,516.9844 L90.9688,519.7031 Q90.3438,519.125 89.75,518.8594 Q89.1563,518.5781 88.5313,518.5781 Q87.1875,518.5781 86.5,519.6563 Q85.8125,520.7188 85.8125,522.8125 Q85.8125,524.9063 86.5,525.9844 Q87.1875,527.0469 88.5313,527.0469 Q89.1563,527.0469 89.75,526.7813 Q90.3438,526.5 90.9688,525.9219 L90.9688,528.6406 Z " fill="#000000"/><text fill="#000000" font-family="sans-serif" font-size="14" lengthAdjust="spacing" textLength="55.583" x="102" y="527.8467">Servicio</text><line style="stroke:#181818;stroke-width:0.5;" x1="74" x2="159.583" y1="539" y2="539"/><line style="stroke:#181818;stroke-width:0.5;" x1="74" x2="159.583" y1="547" y2="547"/></g><!--class Pasajero--><g id="elem_Pasajero"><rect codeLine="22" fill="#F1F1F1" height="48" id="Pasajero" rx="2.5" ry="2.5" style="stroke:#181818;stroke-width:0.5;" width="91.7188" x="140" y="257"/><ellipse cx="155" cy="273" fill="#ADD1B2" rx="11" ry="11" style="stroke:#181818;stroke-width:1.0;"/><path d="M157.9688,278.6406 Q157.3906,278.9375 156.75,279.0781 Q156.1094,279.2344 155.4063,279.2344 Q152.9063,279.2344 151.5781,277.5938 Q150.2656,275.9375 150.2656,272.8125 Q150.2656,269.6875 151.5781,268.0313 Q152.9063,266.375 155.4063,266.375 Q156.1094,266.375 156.75,266.5313 Q157.4063,266.6875 157.9688,266.9844 L157.9688,269.7031 Q157.3438,269.125 156.75,268.8594 Q156.1563,268.5781 155.5313,268.5781 Q154.1875,268.5781 153.5,269.6563 Q152.8125,270.7188 152.8125,272.8125 Q152.8125,274.9063 153.5,275.9844 Q154.1875,277.0469 155.5313,277.0469 Q156.1563,277.0469 156.75,276.7813 Q157.3438,276.5 157.9688,275.9219 L157.9688,278.6406 Z " fill="#000000"/><text fill="#000000" font-family="sans-serif" font-size="14" lengthAdjust="spacing" textLength="59.7188" x="169" y="277.8467">Pasajero</text><line style="stroke:#181818;stroke-width:0.5;" x1="141" x2="230.7188" y1="289" y2="289"/><line style="stroke:#181818;stroke-width:0.5;" x1="141" x2="230.7188" y1="297" y2="297"/></g><!--class MetodoPago--><g id="elem_MetodoPago"><rect codeLine="25" fill="#F1F1F1" height="48" id="MetodoPago" rx="2.5" ry="2.5" style="stroke:#181818;stroke-width:0.5;" width="118.6729" x="196.5" y="507"/><ellipse cx="211.5" cy="523" fill="#A9DCDF" rx="11" ry="11" style="stroke:#181818;stroke-width:1.0;"/><path d="M211.6094,518.3438 L210.4531,523.4219 L212.7813,523.4219 L211.6094,518.3438 Z M210.125,516.1094 L213.1094,516.1094 L216.4688,528.5 L214.0156,528.5 L213.25,525.4375 L209.9688,525.4375 L209.2188,528.5 L206.7813,528.5 L210.125,516.1094 Z " fill="#000000"/><text fill="#000000" font-family="sans-serif" font-size="14" font-style="italic" lengthAdjust="spacing" textLength="86.6729" x="225.5" y="527.8467">MetodoPago</text><line style="stroke:#181818;stroke-width:0.5;" x1="197.5" x2="314.1729" y1="539" y2="539"/><line style="stroke:#181818;stroke-width:0.5;" x1="197.5" x2="314.1729" y1="547" y2="547"/></g><!--link Veh?culo to Conductor--><g id="link_Veh&#237;culo_Conductor"><path codeLine="29" d="M209.87,46.95 C186.65,55.81 158.87,68.55 137,85 C119.72,97.99 107.6697,112.0708 96.8697,126.9808 " fill="none" id="Veh&#237;culo-to-Conductor" style="stroke:#181818;stroke-width:1.0;"/><polygon fill="#181818" points="93.35,131.84,101.869,126.8977,96.2831,127.7907,95.3901,122.2048,93.35,131.84" style="stroke:#181818;stroke-width:1.0;"/><text fill="#000000" font-family="sans-serif" font-size="13" lengthAdjust="spacing" textLength="35.7881" x="138" y="98.0669">Tiene</text></g><!--link Veh?culo to Empresa--><g id="link_Veh&#237;culo_Empresa"><path codeLine="30" d="M295.5,55.14 C333.04,77.13 384.0128,106.9774 421.5028,128.9374 " fill="none" id="Veh&#237;culo-to-Empresa" style="stroke:#181818;stroke-width:1.0;"/><polygon fill="#181818" points="426.68,131.97,420.9359,123.9697,422.3657,129.4428,416.8925,130.8726,426.68,131.97" style="stroke:#181818;stroke-width:1.0;"/><text fill="#000000" font-family="sans-serif" font-size="13" lengthAdjust="spacing" textLength="65.6602" x="375" y="98.0669">Pertenece</text></g><!--link Empresa to Incidencia--><g id="link_Empresa_Incidencia"><path codeLine="31" d="M447.76,180.14 C430.41,202.13 408.1956,230.2989 390.8756,252.2589 " fill="none" id="Empresa-to-Incidencia" style="stroke:#181818;stroke-width:1.0;"/><polygon fill="#181818" points="387.16,256.97,395.8742,252.3805,390.2564,253.0441,389.5928,247.4263,387.16,256.97" style="stroke:#181818;stroke-width:1.0;"/><text fill="#000000" font-family="sans-serif" font-size="13" lengthAdjust="spacing" textLength="57.7129" x="424" y="223.0669">Gestiona</text></g><!--link Conductor to Horario--><g id="link_Conductor_Horario"><path codeLine="32" d="M60.22,180.26 C54.51,189.09 48.91,199.54 46,210 C41.76,225.23 41.805,237.1029 43.655,250.9429 " fill="none" id="Conductor-to-Horario" style="stroke:#181818;stroke-width:1.0;"/><polygon fill="#181818" points="44.45,256.89,47.2223,247.4394,43.7875,251.9341,39.2928,248.4993,44.45,256.89" style="stroke:#181818;stroke-width:1.0;"/><text fill="#000000" font-family="sans-serif" font-size="13" lengthAdjust="spacing" textLength="36.353" x="47" y="223.0669">Sigue</text></g><!--link Conductor to Pasajero--><g id="link_Conductor_Pasajero"><path codeLine="33" d="M90.99,180.22 C99.47,194.44 111.31,212.6 124,227 C133.36,237.62 140.2517,244.1997 150.8017,252.9497 " fill="none" id="Conductor-to-Pasajero" style="stroke:#181818;stroke-width:1.0;"/><polygon fill="#181818" points="155.42,256.78,151.0461,247.9556,151.5714,253.5881,145.939,254.1134,155.42,256.78" style="stroke:#181818;stroke-width:1.0;"/><text fill="#000000" font-family="sans-serif" font-size="13" lengthAdjust="spacing" textLength="48.3818" x="125" y="223.0669">Recoge</text></g><!--link Pasajero to Tarifa--><g id="link_Pasajero_Tarifa"><path codeLine="34" d="M186,305.14 C186,327.13 186,354.01 186,375.97 " fill="none" id="Pasajero-to-Tarifa" style="stroke:#181818;stroke-width:1.0;"/><polygon fill="#181818" points="186,381.97,190,372.97,186,376.97,182,372.97,186,381.97" style="stroke:#181818;stroke-width:1.0;"/><text fill="#000000" font-family="sans-serif" font-size="13" lengthAdjust="spacing" textLength="32.0239" x="187" y="348.0669">Paga</text></g><!--link Tarifa to Servicio--><g id="link_Tarifa_Servicio"><path codeLine="35" d="M170.96,430.23 C165.18,439.41 158.62,450.1 153,460 C144.3,475.33 137.9102,487.6219 131.0502,501.3619 " fill="none" id="Tarifa-to-Servicio" style="stroke:#181818;stroke-width:1.0;"/><polygon fill="#181818" points="128.37,506.73,135.969,500.4646,130.6035,502.2566,128.8115,496.891,128.37,506.73" style="stroke:#181818;stroke-width:1.0;"/><text fill="#000000" font-family="sans-serif" font-size="13" lengthAdjust="spacing" textLength="58.7476" x="154" y="473.0669">Depende</text></g><!--link Tarifa to MetodoPago--><g id="link_Tarifa_MetodoPago"><path codeLine="36" d="M199.69,430.16 C205.12,439.41 211.4,450.19 217,460 C225.9,475.58 232.8249,487.9902 240.3949,501.6702 " fill="none" id="Tarifa-to-MetodoPago" style="stroke:#181818;stroke-width:1.0;"/><polygon fill="#181818" points="243.3,506.92,242.4423,497.1086,240.8791,502.5451,235.4425,500.982,243.3,506.92" style="stroke:#181818;stroke-width:1.0;"/><text fill="#000000" font-family="sans-serif" font-size="13" lengthAdjust="spacing" textLength="75.7148" x="227" y="473.0669">Pagada con</text></g><!--link Pasajero to Veh?culo--><g id="link_Pasajero_Veh&#237;culo"><path codeLine="37" d="M192.31,256.9 C200.28,227.76 214.49,176.12 227,132 C234.49,105.57 241.6245,81.0284 247.5545,60.7684 " fill="none" id="Pasajero-to-Veh&#237;culo" style="stroke:#181818;stroke-width:1.0;"/><polygon fill="#181818" points="249.24,55.01,242.8729,62.524,247.8355,59.8087,250.5508,64.7712,249.24,55.01" style="stroke:#181818;stroke-width:1.0;"/><text fill="#000000" font-family="sans-serif" font-size="13" lengthAdjust="spacing" textLength="40.9805" x="228" y="160.5669">Suben</text></g><!--link Incidencia to Veh?culo--><g id="link_Incidencia_Veh&#237;culo"><path codeLine="38" d="M358.48,256.91 C336.98,209.73 290.7075,108.1801 269.1175,60.7901 " fill="none" id="Incidencia-to-Veh&#237;culo" style="stroke:#181818;stroke-width:1.0;"/><polygon fill="#181818" points="266.63,55.33,266.7212,65.1784,268.7029,59.8801,274.0013,61.8618,266.63,55.33" style="stroke:#181818;stroke-width:1.0;"/><text fill="#000000" font-family="sans-serif" font-size="13" lengthAdjust="spacing" textLength="70.6621" x="323" y="160.5669">Asociada a</text></g><!--SRC=[PP11Ri8m44NtFeMLFHVe0gagg6LHAGB4VXXFWolgGRRJ3U98FKKlnhXr4ZjiBFd_v_6VZsS8GH_ezFk3_PdrLTsKmZ_nXPtfCR8lnJVsu6t5hRykdWAKqiQXDIH7fUxbvKUbxCX_Mwp7jH3WatpMu1YY1upwttodo8PRwBAjfkIBnRA8_AIRlIL7pOmOmehVaez2e323ceWYkq2l5A9b1usQPYTgw46GdUrwcllZ5W9i2RaJOjGIaCj8EQ2JyVcUhB4LCLTq8MUeyeiIydC36jdDVfWMJo7x8mbGBFU0F0SMNKP1SmS0]--></g></svg>