<svg xmlns="http://www.w3.org/2000/svg" xmlns:xlink="http://www.w3.org/1999/xlink" contentStyleType="text/css" height="1020px" preserveAspectRatio="none" style="width:483px;height:1020px;background:#FFFFFF;" version="1.1" viewBox="0 0 483 1020" width="483px" zoomAndPan="magnify"><defs/><g><ellipse cx="296" cy="16" fill="#222222" rx="10" ry="10" style="stroke:#222222;stroke-width:1.0;"/><g id="InicioDelDia"><rect fill="#F1F1F1" height="50" rx="12.5" ry="12.5" style="stroke:#181818;stroke-width:0.5;" width="103.5762" x="244" y="103"/><line style="stroke:#181818;stroke-width:0.5;" x1="244" x2="347.5762" y1="129.2969" y2="129.2969"/><text fill="#000000" font-family="sans-serif" font-size="14" lengthAdjust="spacing" textLength="83.5762" x="254" y="120.9951">InicioDelDia</text></g><g id="InicioRuta"><rect fill="#F1F1F1" height="50" rx="12.5" ry="12.5" style="stroke:#181818;stroke-width:0.5;" width="89.7129" x="251" y="230"/><line style="stroke:#181818;stroke-width:0.5;" x1="251" x2="340.7129" y1="256.2969" y2="256.2969"/><text fill="#000000" font-family="sans-serif" font-size="14" lengthAdjust="spacing" textLength="69.7129" x="261" y="247.9951">InicioRuta</text></g><g id="Parada"><rect fill="#F1F1F1" height="50" rx="12.5" ry="12.5" style="stroke:#181818;stroke-width:0.5;" width="68.8223" x="174.5" y="357"/><line style="stroke:#181818;stroke-width:0.5;" x1="174.5" x2="243.3223" y1="383.2969" y2="383.2969"/><text fill="#000000" font-family="sans-serif" font-size="14" lengthAdjust="spacing" textLength="48.8223" x="184.5" y="374.9951">Parada</text></g><g id="RecogePasajero"><rect fill="#F1F1F1" height="50" rx="12.5" ry="12.5" style="stroke:#181818;stroke-width:0.5;" width="131.8223" x="7" y="484"/><line style="stroke:#181818;stroke-width:0.5;" x1="7" x2="138.8223" y1="510.2969" y2="510.2969"/><text fill="#000000" font-family="sans-serif" font-size="14" lengthAdjust="spacing" textLength="111.8223" x="17" y="501.9951">RecogePasajero</text></g><g id="SigueRuta"><rect fill="#F1F1F1" height="50" rx="12.5" ry="12.5" style="stroke:#181818;stroke-width:0.5;" width="91.8184" x="163" y="611"/><line style="stroke:#181818;stroke-width:0.5;" x1="163" x2="254.8184" y1="637.2969" y2="637.2969"/><text fill="#000000" font-family="sans-serif" font-size="14" lengthAdjust="spacing" textLength="71.8184" x="173" y="628.9951">SigueRuta</text></g><g id="FinRuta"><rect fill="#F1F1F1" height="50" rx="12.5" ry="12.5" style="stroke:#181818;stroke-width:0.5;" width="73.4844" x="259.5" y="738"/><line style="stroke:#181818;stroke-width:0.5;" x1="259.5" x2="332.9844" y1="764.2969" y2="764.2969"/><text fill="#000000" font-family="sans-serif" font-size="14" lengthAdjust="spacing" textLength="53.4844" x="269.5" y="755.9951">FinRuta</text></g><g id="FinDelDia"><rect fill="#F1F1F1" height="50" rx="12.5" ry="12.5" style="stroke:#181818;stroke-width:0.5;" width="87.3477" x="252.5" y="865"/><line style="stroke:#181818;stroke-width:0.5;" x1="252.5" x2="339.8477" y1="891.2969" y2="891.2969"/><text fill="#000000" font-family="sans-serif" font-size="14" lengthAdjust="spacing" textLength="67.3477" x="262.5" y="882.9951">FinDelDia</text></g><ellipse cx="296" cy="1003" fill="none" rx="11" ry="11" style="stroke:#222222;stroke-width:1.0;"/><ellipse cx="296" cy="1003" fill="#222222" rx="6" ry="6" style="stroke:#222222;stroke-width:1.0;"/><!--link *start* to InicioDelDia--><g id="link_*start*_InicioDelDia"><path d="M296,26 C296,42.63 296,72.66 296,96.87 " fill="none" id="*start*-to-InicioDelDia" style="stroke:#181818;stroke-width:1.0;"/><polygon fill="#181818" points="296,102.87,300,93.87,296,97.87,292,93.87,296,102.87" style="stroke:#181818;stroke-width:1.0;"/><text fill="#000000" font-family="sans-serif" font-size="13" lengthAdjust="spacing" textLength="104.0381" x="297" y="69.0669">Comienza el d&#237;a</text></g><!--link InicioDelDia to InicioRuta--><g id="link_InicioDelDia_InicioRuta"><path d="M296,153.1 C296,175.24 296,201.86 296,223.97 " fill="none" id="InicioDelDia-to-InicioRuta" style="stroke:#181818;stroke-width:1.0;"/><polygon fill="#181818" points="296,229.97,300,220.97,296,224.97,292,220.97,296,229.97" style="stroke:#181818;stroke-width:1.0;"/><text fill="#000000" font-family="sans-serif" font-size="13" lengthAdjust="spacing" textLength="74.2231" x="297" y="196.0669">Iniciar Ruta</text></g><!--link InicioRuta to Parada--><g id="link_InicioRuta_Parada"><path d="M276.47,280.09 C269.21,289.3 261.04,299.99 254,310 C243.25,325.28 235.1413,337.918 226.5813,351.848 " fill="none" id="InicioRuta-to-Parada" style="stroke:#181818;stroke-width:1.0;"/><polygon fill="#181818" points="223.44,356.96,231.5599,351.3863,226.0578,352.7,224.744,347.1978,223.44,356.96" style="stroke:#181818;stroke-width:1.0;"/><text fill="#000000" font-family="sans-serif" font-size="13" lengthAdjust="spacing" textLength="101.9814" x="255" y="323.0669">Llegar a Parada</text></g><!--link Parada to RecogePasajero--><g id="link_Parada_RecogePasajero"><path d="M174.3,390.27 C147.72,397.63 112.14,411.65 91,437 C80.09,450.09 76.3623,462.9701 74.6223,477.9501 " fill="none" id="Parada-to-RecogePasajero" style="stroke:#181818;stroke-width:1.0;"/><polygon fill="#181818" points="73.93,483.91,78.9417,475.4316,74.5069,478.9434,70.9951,474.5086,73.93,483.91" style="stroke:#181818;stroke-width:1.0;"/><text fill="#000000" font-family="sans-serif" font-size="13" lengthAdjust="spacing" textLength="90.8477" x="92" y="450.0669">Pasajero sube</text></g><!--link RecogePasajero to SigueRuta--><g id="link_RecogePasajero_SigueRuta"><path d="M84.54,534.06 C92.47,548.84 104.08,567.48 118,581 C130.92,593.54 142.0527,601.4545 157.3327,610.0645 " fill="none" id="RecogePasajero-to-SigueRuta" style="stroke:#181818;stroke-width:1.0;"/><polygon fill="#181818" points="162.56,613.01,156.6828,605.107,158.204,610.5554,152.7555,612.0766,162.56,613.01" style="stroke:#181818;stroke-width:1.0;"/><text fill="#000000" font-family="sans-serif" font-size="13" lengthAdjust="spacing" textLength="63.7686" x="119" y="577.0669">Continuar</text></g><!--link SigueRuta to Parada--><g id="link_SigueRuta_Parada"><path d="M209,610.91 C209,562.8 209,461.33 209,413.16 " fill="none" id="SigueRuta-to-Parada" style="stroke:#181818;stroke-width:1.0;"/><polygon fill="#181818" points="209,407.16,205,416.16,209,412.16,213,416.16,209,407.16" style="stroke:#181818;stroke-width:1.0;"/><text fill="#000000" font-family="sans-serif" font-size="13" lengthAdjust="spacing" textLength="102.9526" x="210" y="513.5669">Pr&#243;xima parada</text></g><!--link SigueRuta to FinRuta--><g id="link_SigueRuta_FinRuta"><path d="M225.77,661.1 C241.18,683.24 260.4622,710.9355 275.8522,733.0455 " fill="none" id="SigueRuta-to-FinRuta" style="stroke:#181818;stroke-width:1.0;"/><polygon fill="#181818" points="279.28,737.97,277.4213,728.2981,276.4235,733.8663,270.8554,732.8685,279.28,737.97" style="stroke:#181818;stroke-width:1.0;"/><text fill="#000000" font-family="sans-serif" font-size="13" lengthAdjust="spacing" textLength="93.5771" x="258" y="704.0669">Terminar Ruta</text></g><!--link FinRuta to InicioRuta--><g id="link_FinRuta_InicioRuta"><path d="M331.63,737.85 C341.95,729.42 352.46,719.22 360,708 C378.5,680.47 383,670.17 383,637 C383,381 383,381 383,381 C383,347.96 379.35,337.47 361,310 C353.42,298.66 347.4469,292.1885 336.9569,283.7585 " fill="none" id="FinRuta-to-InicioRuta" style="stroke:#181818;stroke-width:1.0;"/><polygon fill="#181818" points="332.28,280,336.7897,288.7557,336.1774,283.1321,341.8011,282.5198,332.28,280" style="stroke:#181818;stroke-width:1.0;"/><text fill="#000000" font-family="sans-serif" font-size="13" lengthAdjust="spacing" textLength="91.0317" x="384" y="513.5669">Reiniciar Ruta</text></g><!--link FinRuta to FinDelDia--><g id="link_FinRuta_FinDelDia"><path d="M296,788.1 C296,810.24 296,836.86 296,858.97 " fill="none" id="FinRuta-to-FinDelDia" style="stroke:#181818;stroke-width:1.0;"/><polygon fill="#181818" points="296,864.97,300,855.97,296,859.97,292,855.97,296,864.97" style="stroke:#181818;stroke-width:1.0;"/><text fill="#000000" font-family="sans-serif" font-size="13" lengthAdjust="spacing" textLength="93.4692" x="297" y="831.0669">Termina el d&#237;a</text></g><!--link FinDelDia to *end*--><g id="link_FinDelDia_*end*"><path d="M296,915.09 C296,939.06 296,968.7 296,985.94 " fill="none" id="FinDelDia-to-*end*" style="stroke:#181818;stroke-width:1.0;"/><polygon fill="#181818" points="296,991.94,300,982.94,296,986.94,292,982.94,296,991.94" style="stroke:#181818;stroke-width:1.0;"/><text fill="#000000" font-family="sans-serif" font-size="13" lengthAdjust="spacing" textLength="78.8633" x="297" y="958.0669">Final del d&#237;a</text></g><!--SRC=[PP1D3e9038NtSugkJRW02pSG4nCN1DqH5nKQKWCpPe34U2TN7e6BESNXrrtxtjU-jDdk2a6mXwFcd4rCLSm88KIcPj8l1AgWwD-er0gO9zAk5Nveq8Aq8pjOGYPeiH3gL57f8FIAyeOmAUMcf0GRl9CrZftAfhkHsjWoSUQo8nyV6Tsoxj2gMLqb9xR_FBb6UFoIDzo1jTzq8Lkp7YyPzRzxK-BbnKlErTCR_RRfYxCdPEP-7mgFplR85m00]--></g></svg>