<svg xmlns="http://www.w3.org/2000/svg" xmlns:xlink="http://www.w3.org/1999/xlink" contentStyleType="text/css" height="684px" preserveAspectRatio="none" style="width:594px;height:684px;background:#FFFFFF;" version="1.1" viewBox="0 0 594 684" width="594px" zoomAndPan="magnify"><defs/><g><g id="elem_Veh&#237;culo"><rect fill="#F1F1F1" height="44.5938" style="stroke:#181818;stroke-width:0.5;" width="129.8994" x="217.5" y="7"/><text fill="#000000" font-family="sans-serif" font-size="14" lengthAdjust="spacing" textLength="59.9785" x="252.4604" y="21.9951">Veh&#237;culo</text><line style="stroke:#181818;stroke-width:0.5;" x1="218.5" x2="346.3994" y1="27.2969" y2="27.2969"/><text fill="#000000" font-family="sans-serif" font-size="14" lengthAdjust="spacing" textLength="117.8994" x="223.5" y="44.292">tipo = "Autob&#250;s"</text></g><g id="elem_Conductor"><rect fill="#F1F1F1" height="44.5938" style="stroke:#181818;stroke-width:0.5;" width="148.8418" x="7" y="129"/><text fill="#000000" font-family="sans-serif" font-size="14" lengthAdjust="spacing" textLength="72.4814" x="45.1802" y="143.9951">Conductor</text><line style="stroke:#181818;stroke-width:0.5;" x1="8" x2="154.8418" y1="149.2969" y2="149.2969"/><text fill="#000000" font-family="sans-serif" font-size="14" lengthAdjust="spacing" textLength="136.8418" x="13" y="166.292">nombre = "Andr&#233;s"</text></g><g id="elem_Horario"><rect fill="#F1F1F1" height="44.5938" style="stroke:#181818;stroke-width:0.5;" width="184.0879" x="18.5" y="633"/><text fill="#000000" font-family="sans-serif" font-size="14" lengthAdjust="spacing" textLength="51.6387" x="84.7246" y="647.9951">Horario</text><line style="stroke:#181818;stroke-width:0.5;" x1="19.5" x2="201.5879" y1="653.2969" y2="653.2969"/><text fill="#000000" font-family="sans-serif" font-size="14" lengthAdjust="spacing" textLength="172.0879" x="24.5" y="670.292">Frecuencia = "Cada 20'"</text></g><g id="elem_Empresa"><rect fill="#F1F1F1" height="44.5938" style="stroke:#181818;stroke-width:0.5;" width="126.1602" x="445.5" y="129"/><text fill="#000000" font-family="sans-serif" font-size="14" lengthAdjust="spacing" textLength="61.6123" x="477.7739" y="143.9951">Empresa</text><line style="stroke:#181818;stroke-width:0.5;" x1="446.5" x2="570.6602" y1="149.2969" y2="149.2969"/><text fill="#000000" font-family="sans-serif" font-size="14" lengthAdjust="spacing" textLength="114.1602" x="451.5" y="166.292">Nombre = "Tus"</text></g><g id="elem_Incidencia"><rect fill="#F1F1F1" height="44.5938" style="stroke:#181818;stroke-width:0.5;" width="232.9307" x="355" y="251"/><text fill="#000000" font-family="sans-serif" font-size="14" lengthAdjust="spacing" textLength="71.1279" x="435.9014" y="265.9951">Incidencia</text><line style="stroke:#181818;stroke-width:0.5;" x1="356" x2="586.9307" y1="271.2969" y2="271.2969"/><text fill="#000000" font-family="sans-serif" font-size="14" lengthAdjust="spacing" textLength="220.9307" x="361" y="288.292">Tipo = "Fallo lector de tarjetas"</text></g><g id="elem_Tarifa"><rect fill="#F1F1F1" height="60.8906" style="stroke:#181818;stroke-width:0.5;" width="111.0117" x="163" y="373"/><text fill="#000000" font-family="sans-serif" font-size="14" lengthAdjust="spacing" textLength="40.2842" x="198.3638" y="387.9951">Tarifa</text><line style="stroke:#181818;stroke-width:0.5;" x1="164" x2="273.0117" y1="393.2969" y2="393.2969"/><text fill="#000000" font-family="sans-serif" font-size="14" lengthAdjust="spacing" textLength="99.0117" x="169" y="410.292">Tipo = "Bono"</text><text fill="#000000" font-family="sans-serif" font-size="14" lengthAdjust="spacing" textLength="81.8535" x="169" y="426.5889">precio = 5&#8364;</text></g><g id="elem_Servicio"><rect fill="#F1F1F1" height="44.5938" style="stroke:#181818;stroke-width:0.5;" width="122.1406" x="289.5" y="511"/><text fill="#000000" font-family="sans-serif" font-size="14" lengthAdjust="spacing" textLength="55.583" x="322.7788" y="525.9951">Servicio</text><line style="stroke:#181818;stroke-width:0.5;" x1="290.5" x2="410.6406" y1="531.2969" y2="531.2969"/><text fill="#000000" font-family="sans-serif" font-size="14" lengthAdjust="spacing" textLength="110.1406" x="295.5" y="548.292">Tipo = "Diurno"</text></g><g id="elem_Pasajero"><rect fill="#F1F1F1" height="44.5938" style="stroke:#181818;stroke-width:0.5;" width="113.4043" x="162" y="251"/><text fill="#000000" font-family="sans-serif" font-size="14" lengthAdjust="spacing" textLength="59.7188" x="188.8428" y="265.9951">Pasajero</text><line style="stroke:#181818;stroke-width:0.5;" x1="163" x2="274.4043" y1="271.2969" y2="271.2969"/><text fill="#000000" font-family="sans-serif" font-size="14" lengthAdjust="spacing" textLength="101.4043" x="168" y="288.292">Cantidad = 20</text></g><g id="elem_MetodoPago"><rect fill="#F1F1F1" height="44.5938" style="stroke:#181818;stroke-width:0.5;" width="118.8389" x="135" y="511"/><text fill="#000000" font-family="sans-serif" font-size="14" lengthAdjust="spacing" textLength="86.6729" x="151.083" y="525.9951">MetodoPago</text><line style="stroke:#181818;stroke-width:0.5;" x1="136" x2="252.8389" y1="531.2969" y2="531.2969"/><text fill="#000000" font-family="sans-serif" font-size="14" lengthAdjust="spacing" textLength="106.8389" x="141" y="548.292">Tipo = Efectivo</text></g><g id="elem_Tarjeta"><rect fill="#F1F1F1" height="36.2969" style="stroke:#181818;stroke-width:0.5;" width="63.458" x="383" y="11.5"/><text fill="#000000" font-family="sans-serif" font-size="14" lengthAdjust="spacing" textLength="49.458" x="390" y="26.4951">Tarjeta</text><line style="stroke:#181818;stroke-width:0.5;" x1="384" x2="445.458" y1="31.7969" y2="31.7969"/></g><g id="elem_Efectivo"><rect fill="#F1F1F1" height="36.2969" style="stroke:#181818;stroke-width:0.5;" width="70.3145" x="481.5" y="11.5"/><text fill="#000000" font-family="sans-serif" font-size="14" lengthAdjust="spacing" textLength="56.3145" x="488.5" y="26.4951">Efectivo</text><line style="stroke:#181818;stroke-width:0.5;" x1="482.5" x2="550.8145" y1="31.7969" y2="31.7969"/></g><!--link Veh?culo to Conductor--><g id="link_Veh&#237;culo_Conductor"><path codeLine="32" d="M223.63,52.04 C203.9,60.27 182.19,70.49 163.5,82 C141.71,95.43 123.9926,110.2144 108.2226,124.7444 " fill="none" id="Veh&#237;culo-to-Conductor" style="stroke:#181818;stroke-width:1.0;"/><polygon fill="#181818" points="103.81,128.81,113.1393,125.6533,107.4871,125.422,107.7185,119.7699,103.81,128.81" style="stroke:#181818;stroke-width:1.0;"/><text fill="#000000" font-family="sans-serif" font-size="13" lengthAdjust="spacing" textLength="35.7881" x="164.5" y="95.0669">Tiene</text></g><!--link Veh?culo to Empresa--><g id="link_Veh&#237;culo_Empresa"><path codeLine="33" d="M323.17,52.09 C364.09,73.82 421.5408,104.326 462.4808,126.066 " fill="none" id="Veh&#237;culo-to-Empresa" style="stroke:#181818;stroke-width:1.0;"/><polygon fill="#181818" points="467.78,128.88,461.7072,121.1262,463.364,126.535,457.9552,128.1918,467.78,128.88" style="stroke:#181818;stroke-width:1.0;"/><text fill="#000000" font-family="sans-serif" font-size="13" lengthAdjust="spacing" textLength="65.6602" x="409.5" y="95.0669">Pertenece</text></g><!--link Empresa to Incidencia--><g id="link_Empresa_Incidencia"><path codeLine="34" d="M501.8,174.23 C495.09,195.98 486.6084,223.5065 479.9184,245.1965 " fill="none" id="Empresa-to-Incidencia" style="stroke:#181818;stroke-width:1.0;"/><polygon fill="#181818" points="478.15,250.93,484.6249,243.5087,479.6237,246.1521,476.9803,241.1508,478.15,250.93" style="stroke:#181818;stroke-width:1.0;"/><text fill="#000000" font-family="sans-serif" font-size="13" lengthAdjust="spacing" textLength="57.7129" x="492.5" y="217.0669">Gestiona</text></g><!--link Conductor to Horario--><g id="link_Conductor_Horario"><path codeLine="35" d="M81.5,174.18 C81.5,198.21 81.5,238.12 81.5,272.5 C81.5,272.5 81.5,272.5 81.5,534.5 C81.5,569.65 91.3656,603.3654 99.9256,627.1154 " fill="none" id="Conductor-to-Horario" style="stroke:#181818;stroke-width:1.0;"/><polygon fill="#181818" points="101.96,632.76,102.6714,622.9369,100.2646,628.0562,95.1453,625.6494,101.96,632.76" style="stroke:#181818;stroke-width:1.0;"/><text fill="#000000" font-family="sans-serif" font-size="13" lengthAdjust="spacing" textLength="36.353" x="82.5" y="408.0669">Sigue</text></g><!--link Conductor to Pasajero--><g id="link_Conductor_Pasajero"><path codeLine="36" d="M101.94,174.24 C115.32,188.1 133.42,206.17 150.5,221 C162.35,231.29 171.2317,238.3145 183.2117,247.2045 " fill="none" id="Conductor-to-Pasajero" style="stroke:#181818;stroke-width:1.0;"/><polygon fill="#181818" points="188.03,250.78,183.1863,242.2046,184.0148,247.8004,178.4189,248.6289,188.03,250.78" style="stroke:#181818;stroke-width:1.0;"/><text fill="#000000" font-family="sans-serif" font-size="13" lengthAdjust="spacing" textLength="48.3818" x="151.5" y="217.0669">Recoge</text></g><!--link Pasajero to Tarifa--><g id="link_Pasajero_Tarifa"><path codeLine="37" d="M218.5,296.21 C218.5,317.33 218.5,343.55 218.5,366.98 " fill="none" id="Pasajero-to-Tarifa" style="stroke:#181818;stroke-width:1.0;"/><polygon fill="#181818" points="218.5,372.98,222.5,363.98,218.5,367.98,214.5,363.98,218.5,372.98" style="stroke:#181818;stroke-width:1.0;"/><text fill="#000000" font-family="sans-serif" font-size="13" lengthAdjust="spacing" textLength="32.0239" x="219.5" y="339.0669">Paga</text></g><!--link Tarifa to Servicio--><g id="link_Tarifa_Servicio"><path codeLine="38" d="M257.47,434.16 C268.8,443.34 280.95,453.74 291.5,464 C306.68,478.78 318.4757,492.3639 329.8057,506.3039 " fill="none" id="Tarifa-to-Servicio" style="stroke:#181818;stroke-width:1.0;"/><polygon fill="#181818" points="333.59,510.96,331.0176,501.453,330.4364,507.0799,324.8095,506.4988,333.59,510.96" style="stroke:#181818;stroke-width:1.0;"/><text fill="#000000" font-family="sans-serif" font-size="13" lengthAdjust="spacing" textLength="58.7476" x="308.5" y="477.0669">Depende</text></g><!--link Tarifa to MetodoPago--><g id="link_Tarifa_MetodoPago"><path codeLine="39" d="M212.93,434.19 C208.53,457.67 203.5961,484.0128 199.6461,505.0728 " fill="none" id="Tarifa-to-MetodoPago" style="stroke:#181818;stroke-width:1.0;"/><polygon fill="#181818" points="198.54,510.97,204.1306,502.8616,199.4617,506.0557,196.2677,501.3869,198.54,510.97" style="stroke:#181818;stroke-width:1.0;"/><text fill="#000000" font-family="sans-serif" font-size="13" lengthAdjust="spacing" textLength="75.7148" x="208.5" y="477.0669">Pagada con</text></g><!--link Pasajero to Veh?culo--><g id="link_Pasajero_Veh&#237;culo"><path codeLine="40" d="M223.52,250.54 C230.04,222.31 241.98,171.84 253.5,129 C260.63,102.49 267.9303,77.9692 274.0003,58.0592 " fill="none" id="Pasajero-to-Veh&#237;culo" style="stroke:#181818;stroke-width:1.0;"/><polygon fill="#181818" points="275.75,52.32,269.2993,59.7623,274.2919,57.1027,276.9516,62.0953,275.75,52.32" style="stroke:#181818;stroke-width:1.0;"/><text fill="#000000" font-family="sans-serif" font-size="13" lengthAdjust="spacing" textLength="40.9805" x="254.5" y="156.0669">Suben</text></g><!--link Servicio to Horario--><g id="link_Servicio_Horario"><path codeLine="41" d="M307.32,556.09 C263.86,577.82 202.5866,608.4567 159.1066,630.1967 " fill="none" id="Servicio-to-Horario" style="stroke:#181818;stroke-width:1.0;"/><polygon fill="#181818" points="153.74,632.88,163.5787,632.4328,158.2121,630.6439,160.001,625.2774,153.74,632.88" style="stroke:#181818;stroke-width:1.0;"/><text fill="#000000" font-family="sans-serif" font-size="13" lengthAdjust="spacing" textLength="99.9058" x="246.5" y="599.0669">Programado en</text></g><!--link Incidencia to Veh?culo--><g id="link_Incidencia_Veh&#237;culo"><path codeLine="42" d="M440.26,250.99 C415.3,232.67 380.64,204.51 356.5,174 C325.89,135.31 304.5978,87.569 292.9078,58.029 " fill="none" id="Incidencia-to-Veh&#237;culo" style="stroke:#181818;stroke-width:1.0;"/><polygon fill="#181818" points="290.7,52.45,290.2924,62.2904,292.5398,57.0992,297.7311,59.3467,290.7,52.45" style="stroke:#181818;stroke-width:1.0;"/><text fill="#000000" font-family="sans-serif" font-size="13" lengthAdjust="spacing" textLength="70.6621" x="357.5" y="156.0669">Asociada a</text></g><!--SRC=[NP8xJWCn48Pxdy9AGnKfYaIp4aWX3w00hKX4FsjF5aU99_BQQH0Djq622z3c9fm4UnzUPxVp_D_yyregTYWiVyMtyuzmU-BlZFlFgYFn6pwQEKl5-RSQiGz63JedBPsmP5fKqw4mMCDQclDNoZwG0QCwqvL1uL0B1O6UWmG-dLmb-F9mD5X1Ypz7uurBJH-zWsni6d3JDhk2lHzWZtLp4ha5iqCBQUx6jxCTvjsHfb4TyUM52h7hly_lFckDvgH4dAFBMoXdGcRaSgXWXwRZvg2jaY0zEvtKaKW-eIL9EPG3p-NMg-f45ns78UAAEe3r9nkFRvEhPDuBDGxqRhKPpz5OhmjaNIpeoL8pVe-LLQI1zQw1wQwPyRKg7GxKE7p6Nr1GYIn6WjnktjU74bZx2a9SRiONU4GjCLMJHJMf_gSHf2-z-r5zQwv0pQBfPT-veTB00IHn3oKp3rrc5VcmhmN_]--></g></svg>