<svg xmlns="http://www.w3.org/2000/svg" xmlns:xlink="http://www.w3.org/1999/xlink" contentStyleType="text/css" height="684px" preserveAspectRatio="none" style="width:779px;height:684px;background:#FFFFFF;" version="1.1" viewBox="0 0 779 684" width="779px" zoomAndPan="magnify"><defs/><g><g id="elem_Veh&#237;culo"><rect fill="#F1F1F1" height="44.5938" style="stroke:#181818;stroke-width:0.5;" width="129.8994" x="248" y="7"/><text fill="#000000" font-family="sans-serif" font-size="14" lengthAdjust="spacing" textLength="59.9785" x="282.9604" y="21.9951">Veh&#237;culo</text><line style="stroke:#181818;stroke-width:0.5;" x1="249" x2="376.8994" y1="27.2969" y2="27.2969"/><text fill="#000000" font-family="sans-serif" font-size="14" lengthAdjust="spacing" textLength="117.8994" x="254" y="44.292">tipo = "Autob&#250;s"</text></g><g id="elem_Conductor"><rect fill="#F1F1F1" height="44.5938" style="stroke:#181818;stroke-width:0.5;" width="148.8418" x="24.5" y="129"/><text fill="#000000" font-family="sans-serif" font-size="14" lengthAdjust="spacing" textLength="72.4814" x="62.6802" y="143.9951">Conductor</text><line style="stroke:#181818;stroke-width:0.5;" x1="25.5" x2="172.3418" y1="149.2969" y2="149.2969"/><text fill="#000000" font-family="sans-serif" font-size="14" lengthAdjust="spacing" textLength="136.8418" x="30.5" y="166.292">nombre = "Andr&#233;s"</text></g><g id="elem_Horario"><rect fill="#F1F1F1" height="44.5938" style="stroke:#181818;stroke-width:0.5;" width="184.0879" x="7" y="633"/><text fill="#000000" font-family="sans-serif" font-size="14" lengthAdjust="spacing" textLength="51.6387" x="73.2246" y="647.9951">Horario</text><line style="stroke:#181818;stroke-width:0.5;" x1="8" x2="190.0879" y1="653.2969" y2="653.2969"/><text fill="#000000" font-family="sans-serif" font-size="14" lengthAdjust="spacing" textLength="172.0879" x="13" y="670.292">Frecuencia = "Cada 20'"</text></g><g id="elem_Empresa"><rect fill="#F1F1F1" height="44.5938" style="stroke:#181818;stroke-width:0.5;" width="121.71" x="321" y="129"/><text fill="#000000" font-family="sans-serif" font-size="14" lengthAdjust="spacing" textLength="61.6123" x="351.0488" y="143.9951">Empresa</text><line style="stroke:#181818;stroke-width:0.5;" x1="322" x2="441.71" y1="149.2969" y2="149.2969"/><text fill="#000000" font-family="sans-serif" font-size="14" lengthAdjust="spacing" textLength="109.71" x="327" y="166.292">Nombre ="Tus"</text></g><g id="elem_Incidencia"><rect fill="#F1F1F1" height="44.5938" style="stroke:#181818;stroke-width:0.5;" width="228.4805" x="364" y="251"/><text fill="#000000" font-family="sans-serif" font-size="14" lengthAdjust="spacing" textLength="71.1279" x="442.6763" y="265.9951">Incidencia</text><line style="stroke:#181818;stroke-width:0.5;" x1="365" x2="591.4805" y1="271.2969" y2="271.2969"/><text fill="#000000" font-family="sans-serif" font-size="14" lengthAdjust="spacing" textLength="216.4805" x="370" y="288.292">Tipo ="Fallo lector de tarjetas"</text></g><g id="elem_Tarifa"><rect fill="#F1F1F1" height="60.8906" style="stroke:#181818;stroke-width:0.5;" width="111.0117" x="180.5" y="373"/><text fill="#000000" font-family="sans-serif" font-size="14" lengthAdjust="spacing" textLength="40.2842" x="215.8638" y="387.9951">Tarifa</text><line style="stroke:#181818;stroke-width:0.5;" x1="181.5" x2="290.5117" y1="393.2969" y2="393.2969"/><text fill="#000000" font-family="sans-serif" font-size="14" lengthAdjust="spacing" textLength="99.0117" x="186.5" y="410.292">Tipo = "Bono"</text><text fill="#000000" font-family="sans-serif" font-size="14" lengthAdjust="spacing" textLength="81.8535" x="186.5" y="426.5889">precio = 5&#8364;</text></g><g id="elem_Servicio"><rect fill="#F1F1F1" height="44.5938" style="stroke:#181818;stroke-width:0.5;" width="122.1406" x="152" y="511"/><text fill="#000000" font-family="sans-serif" font-size="14" lengthAdjust="spacing" textLength="55.583" x="185.2788" y="525.9951">Servicio</text><line style="stroke:#181818;stroke-width:0.5;" x1="153" x2="273.1406" y1="531.2969" y2="531.2969"/><text fill="#000000" font-family="sans-serif" font-size="14" lengthAdjust="spacing" textLength="110.1406" x="158" y="548.292">Tipo = "Diurno"</text></g><g id="elem_Tarjeta"><rect fill="#F1F1F1" height="44.5938" style="stroke:#181818;stroke-width:0.5;" width="283.6807" x="226" y="633"/><text fill="#000000" font-family="sans-serif" font-size="14" lengthAdjust="spacing" textLength="49.458" x="343.1113" y="647.9951">Tarjeta</text><line style="stroke:#181818;stroke-width:0.5;" x1="227" x2="508.6807" y1="653.2969" y2="653.2969"/><text fill="#000000" font-family="sans-serif" font-size="14" lengthAdjust="spacing" textLength="271.6807" x="232" y="670.292">TipoPago = "Tarjeta de cr&#233;dito/d&#233;bito"</text></g><g id="elem_Efectivo"><rect fill="#F1F1F1" height="44.5938" style="stroke:#181818;stroke-width:0.5;" width="226.8193" x="545.5" y="633"/><text fill="#000000" font-family="sans-serif" font-size="14" lengthAdjust="spacing" textLength="56.3145" x="630.7524" y="647.9951">Efectivo</text><line style="stroke:#181818;stroke-width:0.5;" x1="546.5" x2="771.3193" y1="653.2969" y2="653.2969"/><text fill="#000000" font-family="sans-serif" font-size="14" lengthAdjust="spacing" textLength="214.8193" x="551.5" y="670.292">TipoPago = "Pago en efectivo"</text></g><g id="elem_Pasajero"><rect fill="#F1F1F1" height="44.5938" style="stroke:#181818;stroke-width:0.5;" width="113.4043" x="179.5" y="251"/><text fill="#000000" font-family="sans-serif" font-size="14" lengthAdjust="spacing" textLength="59.7188" x="206.3428" y="265.9951">Pasajero</text><line style="stroke:#181818;stroke-width:0.5;" x1="180.5" x2="291.9043" y1="271.2969" y2="271.2969"/><text fill="#000000" font-family="sans-serif" font-size="14" lengthAdjust="spacing" textLength="101.4043" x="185.5" y="288.292">Cantidad = 10</text></g><g id="elem_MetodoPago"><rect fill="#F1F1F1" height="44.5938" style="stroke:#181818;stroke-width:0.5;" width="118.6064" x="309.5" y="511"/><text fill="#000000" font-family="sans-serif" font-size="14" lengthAdjust="spacing" textLength="86.6729" x="325.4668" y="525.9951">MetodoPago</text><line style="stroke:#181818;stroke-width:0.5;" x1="310.5" x2="427.1064" y1="531.2969" y2="531.2969"/><text fill="#000000" font-family="sans-serif" font-size="14" lengthAdjust="spacing" textLength="106.6064" x="315.5" y="548.292">Tipo = efectivo</text></g><!--link Veh?culo to Conductor--><g id="link_Veh&#237;culo_Conductor"><path codeLine="37" d="M247.94,51.12 C225.96,59.31 201.75,69.73 181,82 C158.81,95.12 140.9238,110.0934 125.2038,124.7834 " fill="none" id="Veh&#237;culo-to-Conductor" style="stroke:#181818;stroke-width:1.0;"/><polygon fill="#181818" points="120.82,128.88,130.1268,125.6577,124.4732,125.4662,124.6647,119.8126,120.82,128.88" style="stroke:#181818;stroke-width:1.0;"/><text fill="#000000" font-family="sans-serif" font-size="13" lengthAdjust="spacing" textLength="35.7881" x="182" y="95.0669">Tiene</text></g><!--link Veh?culo to Empresa--><g id="link_Veh&#237;culo_Empresa"><path codeLine="38" d="M325.5,52.23 C338,73.98 354.1395,102.0384 366.6095,123.7284 " fill="none" id="Veh&#237;culo-to-Empresa" style="stroke:#181818;stroke-width:1.0;"/><polygon fill="#181818" points="369.6,128.93,368.582,119.1339,367.1079,124.5953,361.6465,123.1212,369.6,128.93" style="stroke:#181818;stroke-width:1.0;"/><text fill="#000000" font-family="sans-serif" font-size="13" lengthAdjust="spacing" textLength="65.6602" x="353" y="95.0669">Pertenece</text></g><!--link Empresa to Incidencia--><g id="link_Empresa_Incidencia"><path codeLine="39" d="M395.15,174.18 C403.88,188.02 415.92,206.09 428,221 C436.39,231.36 442.2721,237.8126 451.1921,246.7526 " fill="none" id="Empresa-to-Incidencia" style="stroke:#181818;stroke-width:1.0;"/><polygon fill="#181818" points="455.43,251,451.9048,241.8037,451.8984,247.4605,446.2416,247.4542,455.43,251" style="stroke:#181818;stroke-width:1.0;"/><text fill="#000000" font-family="sans-serif" font-size="13" lengthAdjust="spacing" textLength="57.7129" x="429" y="217.0669">Gestiona</text></g><!--link Conductor to Horario--><g id="link_Conductor_Horario"><path codeLine="40" d="M99,174.18 C99,198.21 99,238.12 99,272.5 C99,272.5 99,272.5 99,534.5 C99,568.88 99,602.79 99,626.82 " fill="none" id="Conductor-to-Horario" style="stroke:#181818;stroke-width:1.0;"/><polygon fill="#181818" points="99,632.82,103,623.82,99,627.82,95,623.82,99,632.82" style="stroke:#181818;stroke-width:1.0;"/><text fill="#000000" font-family="sans-serif" font-size="13" lengthAdjust="spacing" textLength="36.353" x="100" y="408.0669">Sigue</text></g><!--link Conductor to Pasajero--><g id="link_Conductor_Pasajero"><path codeLine="41" d="M119.44,174.24 C132.82,188.1 150.92,206.17 168,221 C179.85,231.29 188.7317,238.3145 200.7117,247.2045 " fill="none" id="Conductor-to-Pasajero" style="stroke:#181818;stroke-width:1.0;"/><polygon fill="#181818" points="205.53,250.78,200.6863,242.2046,201.5148,247.8004,195.9189,248.6289,205.53,250.78" style="stroke:#181818;stroke-width:1.0;"/><text fill="#000000" font-family="sans-serif" font-size="13" lengthAdjust="spacing" textLength="48.3818" x="169" y="217.0669">Recoge</text></g><!--link Pasajero to Tarifa--><g id="link_Pasajero_Tarifa"><path codeLine="42" d="M236,296.21 C236,317.33 236,343.55 236,366.98 " fill="none" id="Pasajero-to-Tarifa" style="stroke:#181818;stroke-width:1.0;"/><polygon fill="#181818" points="236,372.98,240,363.98,236,367.98,232,363.98,236,372.98" style="stroke:#181818;stroke-width:1.0;"/><text fill="#000000" font-family="sans-serif" font-size="13" lengthAdjust="spacing" textLength="32.0239" x="237" y="339.0669">Paga</text></g><!--link Tarifa to Servicio--><g id="link_Tarifa_Servicio"><path codeLine="43" d="M230.67,434.19 C226.45,457.67 221.71,484.0044 217.93,505.0644 " fill="none" id="Tarifa-to-Servicio" style="stroke:#181818;stroke-width:1.0;"/><polygon fill="#181818" points="216.87,510.97,222.3971,502.8182,217.7533,506.0486,214.5229,501.4049,216.87,510.97" style="stroke:#181818;stroke-width:1.0;"/><text fill="#000000" font-family="sans-serif" font-size="13" lengthAdjust="spacing" textLength="58.7476" x="227" y="477.0669">Depende</text></g><!--link Tarifa to MetodoPago--><g id="link_Tarifa_MetodoPago"><path codeLine="44" d="M266.85,434.19 C291.25,457.67 320.4271,485.7491 342.3071,506.8091 " fill="none" id="Tarifa-to-MetodoPago" style="stroke:#181818;stroke-width:1.0;"/><polygon fill="#181818" points="346.63,510.97,342.9196,501.8468,343.0276,507.5026,337.3718,507.6106,346.63,510.97" style="stroke:#181818;stroke-width:1.0;"/><text fill="#000000" font-family="sans-serif" font-size="13" lengthAdjust="spacing" textLength="75.7148" x="316" y="477.0669">Pagada con</text></g><!--link Pasajero to Veh?culo--><g id="link_Pasajero_Veh&#237;culo"><path codeLine="45" d="M237.67,250.58 C240.34,221.97 246.78,170.64 261,129 C270.5,101.18 283.9143,76.7854 295.7943,57.4054 " fill="none" id="Pasajero-to-Veh&#237;culo" style="stroke:#181818;stroke-width:1.0;"/><polygon fill="#181818" points="298.93,52.29,290.8161,57.8726,296.3169,56.5528,297.6366,62.0536,298.93,52.29" style="stroke:#181818;stroke-width:1.0;"/><text fill="#000000" font-family="sans-serif" font-size="13" lengthAdjust="spacing" textLength="40.9805" x="262" y="156.0669">Suben</text></g><!--link Servicio to Horario--><g id="link_Servicio_Horario"><path codeLine="46" d="M192.36,556.23 C171.69,577.98 144.233,606.8905 123.623,628.5805 " fill="none" id="Servicio-to-Horario" style="stroke:#181818;stroke-width:1.0;"/><polygon fill="#181818" points="119.49,632.93,128.5892,629.161,122.9341,629.3054,122.7898,623.6504,119.49,632.93" style="stroke:#181818;stroke-width:1.0;"/><text fill="#000000" font-family="sans-serif" font-size="13" lengthAdjust="spacing" textLength="99.9058" x="164" y="599.0669">Programado en</text></g><!--link Incidencia to Veh?culo--><g id="link_Incidencia_Veh&#237;culo"><path codeLine="47" d="M486.39,250.89 C490.56,237.39 494.11,219.67 491,204 C479.08,143.94 474.17,121.05 427,82 C412.19,69.74 399.4834,62.2457 382.0134,54.4857 " fill="none" id="Incidencia-to-Veh&#237;culo" style="stroke:#181818;stroke-width:1.0;"/><polygon fill="#181818" points="376.53,52.05,383.1313,59.3591,381.0995,54.0797,386.3789,52.0479,376.53,52.05" style="stroke:#181818;stroke-width:1.0;"/><text fill="#000000" font-family="sans-serif" font-size="13" lengthAdjust="spacing" textLength="70.6621" x="486" y="156.0669">Asociada a</text></g><!--reverse link MetodoPago to Tarjeta--><g id="link_MetodoPago_Tarjeta"><path codeLine="48" d="M368.671,574.2294 C368.491,595.9794 368.36,611.24 368.18,632.93 " fill="none" id="MetodoPago-backto-Tarjeta" style="stroke:#181818;stroke-width:1.0;"/><polygon fill="none" points="368.82,556.23,362.6712,574.1797,374.6708,574.279,368.82,556.23" style="stroke:#181818;stroke-width:1.0;"/></g><!--reverse link MetodoPago to Efectivo--><g id="link_MetodoPago_Efectivo"><path codeLine="49" d="M437.8121,562.9728 C490.3221,584.7028 554.22,611.14 606.75,632.88 " fill="none" id="MetodoPago-backto-Efectivo" style="stroke:#181818;stroke-width:1.0;"/><polygon fill="none" points="421.18,556.09,435.5178,568.5168,440.1064,557.4288,421.18,556.09" style="stroke:#181818;stroke-width:1.0;"/></g><!--SRC=[RL9BJiCm4Dtx55Osh2e-4fi8aA3bjm1LKB6Vs4DmrNegns43RBWD4bo0RM_2IHWdSU8MkcYKUPzvanagvgYyVC2dzPUg5oHVXEIVDokInp8xhJqLw-yg4s-2MkgOhAwL9zTHBIqBXmtPQhV-IBbNvC2PQ7hXKDLebO707eC6UR2taz3Fbok75NJqsyuuczMfvpKRwDQbvSsQhDa5B3Z-0fje6gK7DqSFGIgZTiPf7ZTrCZiZIrbJuUxAXDhXp_ldqF4UtRDH_HXHDp6r2ygtn3rqJ6XJA1jgH3YMua-aZQTTlVue-9cE_yZ_vfd-CMYUQ2Lsb4GrXGhcwA9g3DOR3PfL-ti3wmOzwTOkyBePeXtpX1XkO3GwITQSCnijRk5nLxcSelECAnIn5l1aJRcynCeRiY06ry29vv7BUrFMk8NsW-No3XMLAFfAWBjTSdyeGNHl0UZNbSi9hj1gJD7aGxHIla95TjDx69MZrGLQqPjkvfuwAXqiGOVjY6JcRPVJYhZClK0a2OvUHwDuDd_gyHn-0G00]--></g></svg>