<svg xmlns="http://www.w3.org/2000/svg" xmlns:xlink="http://www.w3.org/1999/xlink" contentStyleType="text/css" height="671px" preserveAspectRatio="none" style="width:579px;height:671px;background:#FFFFFF;" version="1.1" viewBox="0 0 579 671" width="579px" zoomAndPan="magnify"><defs/><g><!--class Veh?culo--><g id="elem_Veh&#237;culo"><rect codeLine="1" fill="#F1F1F1" height="48" id="Veh&#237;culo" rx="2.5" ry="2.5" style="stroke:#181818;stroke-width:0.5;" width="91.9785" x="265" y="7"/><ellipse cx="280" cy="23" fill="#ADD1B2" rx="11" ry="11" style="stroke:#181818;stroke-width:1.0;"/><path d="M282.9688,28.6406 Q282.3906,28.9375 281.75,29.0781 Q281.1094,29.2344 280.4063,29.2344 Q277.9063,29.2344 276.5781,27.5938 Q275.2656,25.9375 275.2656,22.8125 Q275.2656,19.6875 276.5781,18.0313 Q277.9063,16.375 280.4063,16.375 Q281.1094,16.375 281.75,16.5313 Q282.4063,16.6875 282.9688,16.9844 L282.9688,19.7031 Q282.3438,19.125 281.75,18.8594 Q281.1563,18.5781 280.5313,18.5781 Q279.1875,18.5781 278.5,19.6563 Q277.8125,20.7188 277.8125,22.8125 Q277.8125,24.9063 278.5,25.9844 Q279.1875,27.0469 280.5313,27.0469 Q281.1563,27.0469 281.75,26.7813 Q282.3438,26.5 282.9688,25.9219 L282.9688,28.6406 Z " fill="#000000"/><text fill="#000000" font-family="sans-serif" font-size="14" lengthAdjust="spacing" textLength="59.9785" x="294" y="27.8467">Veh&#237;culo</text><line style="stroke:#181818;stroke-width:0.5;" x1="266" x2="355.9785" y1="39" y2="39"/><line style="stroke:#181818;stroke-width:0.5;" x1="266" x2="355.9785" y1="47" y2="47"/></g><!--class Conductor--><g id="elem_Conductor"><rect codeLine="4" fill="#F1F1F1" height="48" id="Conductor" rx="2.5" ry="2.5" style="stroke:#181818;stroke-width:0.5;" width="104.4814" x="42" y="132"/><ellipse cx="57" cy="148" fill="#ADD1B2" rx="11" ry="11" style="stroke:#181818;stroke-width:1.0;"/><path d="M59.9688,153.6406 Q59.3906,153.9375 58.75,154.0781 Q58.1094,154.2344 57.4063,154.2344 Q54.9063,154.2344 53.5781,152.5938 Q52.2656,150.9375 52.2656,147.8125 Q52.2656,144.6875 53.5781,143.0313 Q54.9063,141.375 57.4063,141.375 Q58.1094,141.375 58.75,141.5313 Q59.4063,141.6875 59.9688,141.9844 L59.9688,144.7031 Q59.3438,144.125 58.75,143.8594 Q58.1563,143.5781 57.5313,143.5781 Q56.1875,143.5781 55.5,144.6563 Q54.8125,145.7188 54.8125,147.8125 Q54.8125,149.9063 55.5,150.9844 Q56.1875,152.0469 57.5313,152.0469 Q58.1563,152.0469 58.75,151.7813 Q59.3438,151.5 59.9688,150.9219 L59.9688,153.6406 Z " fill="#000000"/><text fill="#000000" font-family="sans-serif" font-size="14" lengthAdjust="spacing" textLength="72.4814" x="71" y="152.8467">Conductor</text><line style="stroke:#181818;stroke-width:0.5;" x1="43" x2="145.4814" y1="164" y2="164"/><line style="stroke:#181818;stroke-width:0.5;" x1="43" x2="145.4814" y1="172" y2="172"/></g><!--class Horario--><g id="elem_Horario"><rect codeLine="7" fill="#F1F1F1" height="48" id="Horario" rx="2.5" ry="2.5" style="stroke:#181818;stroke-width:0.5;" width="83.6387" x="23" y="257"/><ellipse cx="38" cy="273" fill="#ADD1B2" rx="11" ry="11" style="stroke:#181818;stroke-width:1.0;"/><path d="M40.9688,278.6406 Q40.3906,278.9375 39.75,279.0781 Q39.1094,279.2344 38.4063,279.2344 Q35.9063,279.2344 34.5781,277.5938 Q33.2656,275.9375 33.2656,272.8125 Q33.2656,269.6875 34.5781,268.0313 Q35.9063,266.375 38.4063,266.375 Q39.1094,266.375 39.75,266.5313 Q40.4063,266.6875 40.9688,266.9844 L40.9688,269.7031 Q40.3438,269.125 39.75,268.8594 Q39.1563,268.5781 38.5313,268.5781 Q37.1875,268.5781 36.5,269.6563 Q35.8125,270.7188 35.8125,272.8125 Q35.8125,274.9063 36.5,275.9844 Q37.1875,277.0469 38.5313,277.0469 Q39.1563,277.0469 39.75,276.7813 Q40.3438,276.5 40.9688,275.9219 L40.9688,278.6406 Z " fill="#000000"/><text fill="#000000" font-family="sans-serif" font-size="14" lengthAdjust="spacing" textLength="51.6387" x="52" y="277.8467">Horario</text><line style="stroke:#181818;stroke-width:0.5;" x1="24" x2="105.6387" y1="289" y2="289"/><line style="stroke:#181818;stroke-width:0.5;" x1="24" x2="105.6387" y1="297" y2="297"/></g><!--class Empresa--><g id="elem_Empresa"><rect codeLine="10" fill="#F1F1F1" height="48" id="Empresa" rx="2.5" ry="2.5" style="stroke:#181818;stroke-width:0.5;" width="93.6123" x="364" y="132"/><ellipse cx="379" cy="148" fill="#ADD1B2" rx="11" ry="11" style="stroke:#181818;stroke-width:1.0;"/><path d="M381.9688,153.6406 Q381.3906,153.9375 380.75,154.0781 Q380.1094,154.2344 379.4063,154.2344 Q376.9063,154.2344 375.5781,152.5938 Q374.2656,150.9375 374.2656,147.8125 Q374.2656,144.6875 375.5781,143.0313 Q376.9063,141.375 379.4063,141.375 Q380.1094,141.375 380.75,141.5313 Q381.4063,141.6875 381.9688,141.9844 L381.9688,144.7031 Q381.3438,144.125 380.75,143.8594 Q380.1563,143.5781 379.5313,143.5781 Q378.1875,143.5781 377.5,144.6563 Q376.8125,145.7188 376.8125,147.8125 Q376.8125,149.9063 377.5,150.9844 Q378.1875,152.0469 379.5313,152.0469 Q380.1563,152.0469 380.75,151.7813 Q381.3438,151.5 381.9688,150.9219 L381.9688,153.6406 Z " fill="#000000"/><text fill="#000000" font-family="sans-serif" font-size="14" lengthAdjust="spacing" textLength="61.6123" x="393" y="152.8467">Empresa</text><line style="stroke:#181818;stroke-width:0.5;" x1="365" x2="456.6123" y1="164" y2="164"/><line style="stroke:#181818;stroke-width:0.5;" x1="365" x2="456.6123" y1="172" y2="172"/></g><!--class Incidencia--><g id="elem_Incidencia"><rect codeLine="13" fill="#F1F1F1" height="48" id="Incidencia" rx="2.5" ry="2.5" style="stroke:#181818;stroke-width:0.5;" width="103.1279" x="436.5" y="257"/><ellipse cx="451.5" cy="273" fill="#ADD1B2" rx="11" ry="11" style="stroke:#181818;stroke-width:1.0;"/><path d="M454.4688,278.6406 Q453.8906,278.9375 453.25,279.0781 Q452.6094,279.2344 451.9063,279.2344 Q449.4063,279.2344 448.0781,277.5938 Q446.7656,275.9375 446.7656,272.8125 Q446.7656,269.6875 448.0781,268.0313 Q449.4063,266.375 451.9063,266.375 Q452.6094,266.375 453.25,266.5313 Q453.9063,266.6875 454.4688,266.9844 L454.4688,269.7031 Q453.8438,269.125 453.25,268.8594 Q452.6563,268.5781 452.0313,268.5781 Q450.6875,268.5781 450,269.6563 Q449.3125,270.7188 449.3125,272.8125 Q449.3125,274.9063 450,275.9844 Q450.6875,277.0469 452.0313,277.0469 Q452.6563,277.0469 453.25,276.7813 Q453.8438,276.5 454.4688,275.9219 L454.4688,278.6406 Z " fill="#000000"/><text fill="#000000" font-family="sans-serif" font-size="14" lengthAdjust="spacing" textLength="71.1279" x="465.5" y="277.8467">Incidencia</text><line style="stroke:#181818;stroke-width:0.5;" x1="437.5" x2="538.6279" y1="289" y2="289"/><line style="stroke:#181818;stroke-width:0.5;" x1="437.5" x2="538.6279" y1="297" y2="297"/></g><!--class Tarifa--><g id="elem_Tarifa"><rect codeLine="16" fill="#F1F1F1" height="48" id="Tarifa" rx="2.5" ry="2.5" style="stroke:#181818;stroke-width:0.5;" width="72.2842" x="155" y="382"/><ellipse cx="170" cy="398" fill="#ADD1B2" rx="11" ry="11" style="stroke:#181818;stroke-width:1.0;"/><path d="M172.9688,403.6406 Q172.3906,403.9375 171.75,404.0781 Q171.1094,404.2344 170.4063,404.2344 Q167.9063,404.2344 166.5781,402.5938 Q165.2656,400.9375 165.2656,397.8125 Q165.2656,394.6875 166.5781,393.0313 Q167.9063,391.375 170.4063,391.375 Q171.1094,391.375 171.75,391.5313 Q172.4063,391.6875 172.9688,391.9844 L172.9688,394.7031 Q172.3438,394.125 171.75,393.8594 Q171.1563,393.5781 170.5313,393.5781 Q169.1875,393.5781 168.5,394.6563 Q167.8125,395.7188 167.8125,397.8125 Q167.8125,399.9063 168.5,400.9844 Q169.1875,402.0469 170.5313,402.0469 Q171.1563,402.0469 171.75,401.7813 Q172.3438,401.5 172.9688,400.9219 L172.9688,403.6406 Z " fill="#000000"/><text fill="#000000" font-family="sans-serif" font-size="14" lengthAdjust="spacing" textLength="40.2842" x="184" y="402.8467">Tarifa</text><line style="stroke:#181818;stroke-width:0.5;" x1="156" x2="226.2842" y1="414" y2="414"/><line style="stroke:#181818;stroke-width:0.5;" x1="156" x2="226.2842" y1="422" y2="422"/></g><!--class Servicio--><g id="elem_Servicio"><rect codeLine="19" fill="#F1F1F1" height="48" id="Servicio" rx="2.5" ry="2.5" style="stroke:#181818;stroke-width:0.5;" width="87.583" x="236" y="507"/><ellipse cx="251" cy="523" fill="#ADD1B2" rx="11" ry="11" style="stroke:#181818;stroke-width:1.0;"/><path d="M253.9688,528.6406 Q253.3906,528.9375 252.75,529.0781 Q252.1094,529.2344 251.4063,529.2344 Q248.9063,529.2344 247.5781,527.5938 Q246.2656,525.9375 246.2656,522.8125 Q246.2656,519.6875 247.5781,518.0313 Q248.9063,516.375 251.4063,516.375 Q252.1094,516.375 252.75,516.5313 Q253.4063,516.6875 253.9688,516.9844 L253.9688,519.7031 Q253.3438,519.125 252.75,518.8594 Q252.1563,518.5781 251.5313,518.5781 Q250.1875,518.5781 249.5,519.6563 Q248.8125,520.7188 248.8125,522.8125 Q248.8125,524.9063 249.5,525.9844 Q250.1875,527.0469 251.5313,527.0469 Q252.1563,527.0469 252.75,526.7813 Q253.3438,526.5 253.9688,525.9219 L253.9688,528.6406 Z " fill="#000000"/><text fill="#000000" font-family="sans-serif" font-size="14" lengthAdjust="spacing" textLength="55.583" x="265" y="527.8467">Servicio</text><line style="stroke:#181818;stroke-width:0.5;" x1="237" x2="322.583" y1="539" y2="539"/><line style="stroke:#181818;stroke-width:0.5;" x1="237" x2="322.583" y1="547" y2="547"/></g><!--class Pasajero--><g id="elem_Pasajero"><rect codeLine="22" fill="#F1F1F1" height="48" id="Pasajero" rx="2.5" ry="2.5" style="stroke:#181818;stroke-width:0.5;" width="91.7188" x="145" y="257"/><ellipse cx="160" cy="273" fill="#ADD1B2" rx="11" ry="11" style="stroke:#181818;stroke-width:1.0;"/><path d="M162.9688,278.6406 Q162.3906,278.9375 161.75,279.0781 Q161.1094,279.2344 160.4063,279.2344 Q157.9063,279.2344 156.5781,277.5938 Q155.2656,275.9375 155.2656,272.8125 Q155.2656,269.6875 156.5781,268.0313 Q157.9063,266.375 160.4063,266.375 Q161.1094,266.375 161.75,266.5313 Q162.4063,266.6875 162.9688,266.9844 L162.9688,269.7031 Q162.3438,269.125 161.75,268.8594 Q161.1563,268.5781 160.5313,268.5781 Q159.1875,268.5781 158.5,269.6563 Q157.8125,270.7188 157.8125,272.8125 Q157.8125,274.9063 158.5,275.9844 Q159.1875,277.0469 160.5313,277.0469 Q161.1563,277.0469 161.75,276.7813 Q162.3438,276.5 162.9688,275.9219 L162.9688,278.6406 Z " fill="#000000"/><text fill="#000000" font-family="sans-serif" font-size="14" lengthAdjust="spacing" textLength="59.7188" x="174" y="277.8467">Pasajero</text><line style="stroke:#181818;stroke-width:0.5;" x1="146" x2="235.7188" y1="289" y2="289"/><line style="stroke:#181818;stroke-width:0.5;" x1="146" x2="235.7188" y1="297" y2="297"/></g><!--class MetodoPago--><g id="elem_MetodoPago"><rect codeLine="25" fill="#F1F1F1" height="48" id="MetodoPago" rx="2.5" ry="2.5" style="stroke:#181818;stroke-width:0.5;" width="118.6729" x="51.5" y="507"/><ellipse cx="66.5" cy="523" fill="#A9DCDF" rx="11" ry="11" style="stroke:#181818;stroke-width:1.0;"/><path d="M66.6094,518.3438 L65.4531,523.4219 L67.7813,523.4219 L66.6094,518.3438 Z M65.125,516.1094 L68.1094,516.1094 L71.4688,528.5 L69.0156,528.5 L68.25,525.4375 L64.9688,525.4375 L64.2188,528.5 L61.7813,528.5 L65.125,516.1094 Z " fill="#000000"/><text fill="#000000" font-family="sans-serif" font-size="14" font-style="italic" lengthAdjust="spacing" textLength="86.6729" x="80.5" y="527.8467">MetodoPago</text><line style="stroke:#181818;stroke-width:0.5;" x1="52.5" x2="169.1729" y1="539" y2="539"/><line style="stroke:#181818;stroke-width:0.5;" x1="52.5" x2="169.1729" y1="547" y2="547"/></g><!--class Efectivo--><g id="elem_Efectivo"><rect codeLine="28" fill="#F1F1F1" height="48" id="Efectivo" rx="2.5" ry="2.5" style="stroke:#181818;stroke-width:0.5;" width="88.3145" x="7" y="616"/><ellipse cx="22" cy="632" fill="#ADD1B2" rx="11" ry="11" style="stroke:#181818;stroke-width:1.0;"/><path d="M24.9688,637.6406 Q24.3906,637.9375 23.75,638.0781 Q23.1094,638.2344 22.4063,638.2344 Q19.9063,638.2344 18.5781,636.5938 Q17.2656,634.9375 17.2656,631.8125 Q17.2656,628.6875 18.5781,627.0313 Q19.9063,625.375 22.4063,625.375 Q23.1094,625.375 23.75,625.5313 Q24.4063,625.6875 24.9688,625.9844 L24.9688,628.7031 Q24.3438,628.125 23.75,627.8594 Q23.1563,627.5781 22.5313,627.5781 Q21.1875,627.5781 20.5,628.6563 Q19.8125,629.7188 19.8125,631.8125 Q19.8125,633.9063 20.5,634.9844 Q21.1875,636.0469 22.5313,636.0469 Q23.1563,636.0469 23.75,635.7813 Q24.3438,635.5 24.9688,634.9219 L24.9688,637.6406 Z " fill="#000000"/><text fill="#000000" font-family="sans-serif" font-size="14" lengthAdjust="spacing" textLength="56.3145" x="36" y="636.8467">Efectivo</text><line style="stroke:#181818;stroke-width:0.5;" x1="8" x2="94.3145" y1="648" y2="648"/><line style="stroke:#181818;stroke-width:0.5;" x1="8" x2="94.3145" y1="656" y2="656"/></g><!--class Tarjeta--><g id="elem_Tarjeta"><rect codeLine="31" fill="#F1F1F1" height="48" id="Tarjeta" rx="2.5" ry="2.5" style="stroke:#181818;stroke-width:0.5;" width="81.458" x="130.5" y="616"/><ellipse cx="145.5" cy="632" fill="#ADD1B2" rx="11" ry="11" style="stroke:#181818;stroke-width:1.0;"/><path d="M148.4688,637.6406 Q147.8906,637.9375 147.25,638.0781 Q146.6094,638.2344 145.9063,638.2344 Q143.4063,638.2344 142.0781,636.5938 Q140.7656,634.9375 140.7656,631.8125 Q140.7656,628.6875 142.0781,627.0313 Q143.4063,625.375 145.9063,625.375 Q146.6094,625.375 147.25,625.5313 Q147.9063,625.6875 148.4688,625.9844 L148.4688,628.7031 Q147.8438,628.125 147.25,627.8594 Q146.6563,627.5781 146.0313,627.5781 Q144.6875,627.5781 144,628.6563 Q143.3125,629.7188 143.3125,631.8125 Q143.3125,633.9063 144,634.9844 Q144.6875,636.0469 146.0313,636.0469 Q146.6563,636.0469 147.25,635.7813 Q147.8438,635.5 148.4688,634.9219 L148.4688,637.6406 Z " fill="#000000"/><text fill="#000000" font-family="sans-serif" font-size="14" lengthAdjust="spacing" textLength="49.458" x="159.5" y="636.8467">Tarjeta</text><line style="stroke:#181818;stroke-width:0.5;" x1="131.5" x2="210.958" y1="648" y2="648"/><line style="stroke:#181818;stroke-width:0.5;" x1="131.5" x2="210.958" y1="656" y2="656"/></g><!--reverse link MetodoPago to Efectivo--><g id="link_MetodoPago_Efectivo"><path codeLine="34" d="M89.1761,570.92 C79.1161,588.86 74.05,597.89 63.99,615.83 " fill="none" id="MetodoPago-backto-Efectivo" style="stroke:#181818;stroke-width:1.0;"/><polygon fill="none" points="97.98,555.22,83.9427,567.9854,94.4094,573.8547,97.98,555.22" style="stroke:#181818;stroke-width:1.0;"/></g><!--reverse link MetodoPago to Tarjeta--><g id="link_MetodoPago_Tarjeta"><path codeLine="35" d="M132.8239,570.92 C142.8839,588.86 147.95,597.89 158.01,615.83 " fill="none" id="MetodoPago-backto-Tarjeta" style="stroke:#181818;stroke-width:1.0;"/><polygon fill="none" points="124.02,555.22,127.5906,573.8547,138.0573,567.9854,124.02,555.22" style="stroke:#181818;stroke-width:1.0;"/></g><!--link Veh?culo to Conductor--><g id="link_Veh&#237;culo_Conductor"><path codeLine="37" d="M264.77,40.51 C231.56,48.22 186.86,61.98 153,85 C134.86,97.33 122.5647,111.7904 111.9247,127.0304 " fill="none" id="Veh&#237;culo-to-Conductor" style="stroke:#181818;stroke-width:1.0;"/><polygon fill="#181818" points="108.49,131.95,116.9218,126.8604,111.3523,127.8503,110.3623,122.2807,108.49,131.95" style="stroke:#181818;stroke-width:1.0;"/><text fill="#000000" font-family="sans-serif" font-size="13" lengthAdjust="spacing" textLength="35.7881" x="154" y="98.0669">Tiene</text></g><!--link Veh?culo to Empresa--><g id="link_Veh&#237;culo_Empresa"><path codeLine="38" d="M329.81,55.14 C347.69,77.13 370.6342,105.3551 388.4942,127.3151 " fill="none" id="Veh&#237;culo-to-Empresa" style="stroke:#181818;stroke-width:1.0;"/><polygon fill="#181818" points="392.28,131.97,389.7046,122.4638,389.1252,128.0909,383.4981,127.5116,392.28,131.97" style="stroke:#181818;stroke-width:1.0;"/><text fill="#000000" font-family="sans-serif" font-size="13" lengthAdjust="spacing" textLength="65.6602" x="368" y="98.0669">Pertenece</text></g><!--link Empresa to Incidencia--><g id="link_Empresa_Incidencia"><path codeLine="39" d="M419.72,180.2 C425.45,194.24 433.61,212.23 443,227 C449.61,237.39 454.1322,243.4005 461.9522,252.3105 " fill="none" id="Empresa-to-Incidencia" style="stroke:#181818;stroke-width:1.0;"/><polygon fill="#181818" points="465.91,256.82,462.9796,247.4172,462.6118,253.0621,456.9669,252.6943,465.91,256.82" style="stroke:#181818;stroke-width:1.0;"/><text fill="#000000" font-family="sans-serif" font-size="13" lengthAdjust="spacing" textLength="57.7129" x="444" y="223.0669">Gestiona</text></g><!--link Conductor to Horario--><g id="link_Conductor_Horario"><path codeLine="40" d="M76.22,180.26 C70.51,189.09 64.91,199.54 62,210 C57.76,225.23 57.805,237.1029 59.655,250.9429 " fill="none" id="Conductor-to-Horario" style="stroke:#181818;stroke-width:1.0;"/><polygon fill="#181818" points="60.45,256.89,63.2223,247.4394,59.7875,251.9341,55.2928,248.4993,60.45,256.89" style="stroke:#181818;stroke-width:1.0;"/><text fill="#000000" font-family="sans-serif" font-size="13" lengthAdjust="spacing" textLength="36.353" x="63" y="223.0669">Sigue</text></g><!--link Conductor to Pasajero--><g id="link_Conductor_Pasajero"><path codeLine="41" d="M107.69,180.12 C116.35,194.13 128.11,212.11 140,227 C148.21,237.28 153.8584,243.5965 162.7084,252.5765 " fill="none" id="Conductor-to-Pasajero" style="stroke:#181818;stroke-width:1.0;"/><polygon fill="#181818" points="166.92,256.85,163.4516,247.6321,163.4103,253.2888,157.7536,253.2475,166.92,256.85" style="stroke:#181818;stroke-width:1.0;"/><text fill="#000000" font-family="sans-serif" font-size="13" lengthAdjust="spacing" textLength="48.3818" x="141" y="223.0669">Recoge</text></g><!--link Pasajero to Tarifa--><g id="link_Pasajero_Tarifa"><path codeLine="42" d="M191,305.14 C191,327.13 191,354.01 191,375.97 " fill="none" id="Pasajero-to-Tarifa" style="stroke:#181818;stroke-width:1.0;"/><polygon fill="#181818" points="191,381.97,195,372.97,191,376.97,187,372.97,191,381.97" style="stroke:#181818;stroke-width:1.0;"/><text fill="#000000" font-family="sans-serif" font-size="13" lengthAdjust="spacing" textLength="32.0239" x="192" y="348.0669">Paga</text></g><!--link Tarifa to Servicio--><g id="link_Tarifa_Servicio"><path codeLine="43" d="M199.83,430.2 C205.81,444.41 214.52,462.57 225,477 C232.79,487.73 238.4937,494.0768 247.9037,502.8168 " fill="none" id="Tarifa-to-Servicio" style="stroke:#181818;stroke-width:1.0;"/><polygon fill="#181818" points="252.3,506.9,248.4278,497.8443,248.6364,503.4973,242.9834,503.706,252.3,506.9" style="stroke:#181818;stroke-width:1.0;"/><text fill="#000000" font-family="sans-serif" font-size="13" lengthAdjust="spacing" textLength="58.7476" x="226" y="473.0669">Depende</text></g><!--link Tarifa to MetodoPago--><g id="link_Tarifa_MetodoPago"><path codeLine="44" d="M154.82,420.33 C137.34,428.81 118.02,441.71 108,460 C100.23,474.19 100.1672,486.6457 103.0272,500.9957 " fill="none" id="Tarifa-to-MetodoPago" style="stroke:#181818;stroke-width:1.0;"/><polygon fill="#181818" points="104.2,506.88,106.3637,497.2718,103.2227,501.9764,98.518,498.8354,104.2,506.88" style="stroke:#181818;stroke-width:1.0;"/><text fill="#000000" font-family="sans-serif" font-size="13" lengthAdjust="spacing" textLength="75.7148" x="109" y="473.0669">Pagada con</text></g><!--link Pasajero to Veh?culo--><g id="link_Pasajero_Veh&#237;culo"><path codeLine="45" d="M197.09,256.94 C205.39,227.17 221.7,174.18 243,132 C257.1,104.07 274.1962,79.5621 289.0562,59.9521 " fill="none" id="Pasajero-to-Veh&#237;culo" style="stroke:#181818;stroke-width:1.0;"/><polygon fill="#181818" points="292.68,55.17,284.0563,59.9273,289.6602,59.1551,290.4324,64.759,292.68,55.17" style="stroke:#181818;stroke-width:1.0;"/><text fill="#000000" font-family="sans-serif" font-size="13" lengthAdjust="spacing" textLength="40.9805" x="244" y="160.5669">Suben</text></g><!--link Incidencia to Veh?culo--><g id="link_Incidencia_Veh&#237;culo"><path codeLine="46" d="M499.26,256.83 C504.52,243.28 509.02,225.78 506,210 C494.26,148.7 490.86,123.83 442,85 C417.13,65.23 389.6278,53.6866 362.8578,45.3366 " fill="none" id="Incidencia-to-Veh&#237;culo" style="stroke:#181818;stroke-width:1.0;"/><polygon fill="#181818" points="357.13,43.55,364.5307,50.0485,361.9032,45.0388,366.9128,42.4114,357.13,43.55" style="stroke:#181818;stroke-width:1.0;"/><text fill="#000000" font-family="sans-serif" font-size="13" lengthAdjust="spacing" textLength="70.6621" x="501" y="160.5669">Asociada a</text></g><!--link Veh?culo to Servicio--><g id="link_Veh&#237;culo_Servicio"><path codeLine="47" d="M311,55.12 C311,79.84 311,120.19 311,155 C311,155 311,155 311,407 C311,442.68 300.6899,476.8295 291.5699,501.2395 " fill="none" id="Veh&#237;culo-to-Servicio" style="stroke:#181818;stroke-width:1.0;"/><polygon fill="#181818" points="289.47,506.86,296.3669,499.8292,291.2199,502.1762,288.8729,497.0293,289.47,506.86" style="stroke:#181818;stroke-width:1.0;"/><text fill="#000000" font-family="sans-serif" font-size="13" lengthAdjust="spacing" textLength="47.0107" x="312" y="285.5669">Realiza</text></g><!--SRC=[PP11JiCm44NtFeMLVIw0418212oGehRgVZgP1bUffxATBWeSYLDmCSRW97QwYPJ_tvyPV-p1Uxsbzvzl77hM7-fBAVmJ7zYs0mPskVZ23fmfkAVZoP67N7grQ5gIJw5k9Balb3Mviy5oN0CU3kII1ZiV763G_-OR1MwvWQwyO4yOp9aNomuKqhOiTljPrrFWoaWffUP6wlekg-96Lnj3bge5CPOWVaCk2872Z6eaiau4UYOV35ker3mxKcE_WgnDDz3IdzeHO4N8dH2J5e5KShm3EXcV_gCrjItc8vt8jbJuMHafte96jeiDyyFZaSEE1CWUTuNSUnPTHi6ojFoW5K5lBb3z0W00]--></g></svg>