<svg xmlns="http://www.w3.org/2000/svg" xmlns:xlink="http://www.w3.org/1999/xlink" contentStyleType="text/css" height="1274px" preserveAspectRatio="none" style="width:510px;height:1274px;background:#FFFFFF;" version="1.1" viewBox="0 0 510 1274" width="510px" zoomAndPan="magnify"><defs/><g><ellipse cx="347.95" cy="16" fill="#222222" rx="10" ry="10" style="stroke:#222222;stroke-width:1.0;"/><g id="InicioDelDia"><rect fill="#F1F1F1" height="50" rx="12.5" ry="12.5" style="stroke:#181818;stroke-width:0.5;" width="103.5762" x="295.95" y="103"/><line style="stroke:#181818;stroke-width:0.5;" x1="295.95" x2="399.5262" y1="129.2969" y2="129.2969"/><text fill="#000000" font-family="sans-serif" font-size="14" lengthAdjust="spacing" textLength="83.5762" x="305.95" y="120.9951">InicioDelDia</text></g><g id="InicioRuta"><rect fill="#F1F1F1" height="50" rx="12.5" ry="12.5" style="stroke:#181818;stroke-width:0.5;" width="89.7129" x="302.95" y="230"/><line style="stroke:#181818;stroke-width:0.5;" x1="302.95" x2="392.6629" y1="256.2969" y2="256.2969"/><text fill="#000000" font-family="sans-serif" font-size="14" lengthAdjust="spacing" textLength="69.7129" x="312.95" y="247.9951">InicioRuta</text></g><g id="Parada"><rect fill="#F1F1F1" height="50" rx="12.5" ry="12.5" style="stroke:#181818;stroke-width:0.5;" width="68.8223" x="250.45" y="357"/><line style="stroke:#181818;stroke-width:0.5;" x1="250.45" x2="319.2723" y1="383.2969" y2="383.2969"/><text fill="#000000" font-family="sans-serif" font-size="14" lengthAdjust="spacing" textLength="48.8223" x="260.45" y="374.9951">Parada</text></g><g id="RecogePasajero"><rect fill="#F1F1F1" height="50" rx="12.5" ry="12.5" style="stroke:#181818;stroke-width:0.5;" width="131.8223" x="223.95" y="484"/><line style="stroke:#181818;stroke-width:0.5;" x1="223.95" x2="355.7723" y1="510.2969" y2="510.2969"/><text fill="#000000" font-family="sans-serif" font-size="14" lengthAdjust="spacing" textLength="111.8223" x="233.95" y="501.9951">RecogePasajero</text></g><g id="SigueRuta"><rect fill="#F1F1F1" height="50" rx="12.5" ry="12.5" style="stroke:#181818;stroke-width:0.5;" width="91.8184" x="48.95" y="611"/><line style="stroke:#181818;stroke-width:0.5;" x1="48.95" x2="140.7684" y1="637.2969" y2="637.2969"/><text fill="#000000" font-family="sans-serif" font-size="14" lengthAdjust="spacing" textLength="71.8184" x="58.95" y="628.9951">SigueRuta</text></g><g id="Incidencia"><rect fill="#F1F1F1" height="50" rx="12.5" ry="12.5" style="stroke:#181818;stroke-width:0.5;" width="91.1279" x="266.45" y="738"/><line style="stroke:#181818;stroke-width:0.5;" x1="266.45" x2="357.5779" y1="764.2969" y2="764.2969"/><text fill="#000000" font-family="sans-serif" font-size="14" lengthAdjust="spacing" textLength="71.1279" x="276.45" y="755.9951">Incidencia</text></g><g id="GestionaIncidencia"><rect fill="#F1F1F1" height="50" rx="12.5" ry="12.5" style="stroke:#181818;stroke-width:0.5;" width="153.2803" x="54.45" y="865"/><line style="stroke:#181818;stroke-width:0.5;" x1="54.45" x2="207.7303" y1="891.2969" y2="891.2969"/><text fill="#000000" font-family="sans-serif" font-size="14" lengthAdjust="spacing" textLength="133.2803" x="64.45" y="882.9951">GestionaIncidencia</text></g><g id="FinRuta"><rect fill="#F1F1F1" height="50" rx="12.5" ry="12.5" style="stroke:#181818;stroke-width:0.5;" width="73.4844" x="94.45" y="992"/><line style="stroke:#181818;stroke-width:0.5;" x1="94.45" x2="167.9344" y1="1018.2969" y2="1018.2969"/><text fill="#000000" font-family="sans-serif" font-size="14" lengthAdjust="spacing" textLength="53.4844" x="104.45" y="1009.9951">FinRuta</text></g><g id="FinDelDia"><rect fill="#F1F1F1" height="50" rx="12.5" ry="12.5" style="stroke:#181818;stroke-width:0.5;" width="87.3477" x="87.45" y="1119"/><line style="stroke:#181818;stroke-width:0.5;" x1="87.45" x2="174.7977" y1="1145.2969" y2="1145.2969"/><text fill="#000000" font-family="sans-serif" font-size="14" lengthAdjust="spacing" textLength="67.3477" x="97.45" y="1136.9951">FinDelDia</text></g><ellipse cx="130.95" cy="1257" fill="none" rx="11" ry="11" style="stroke:#222222;stroke-width:1.0;"/><ellipse cx="130.95" cy="1257" fill="#222222" rx="6" ry="6" style="stroke:#222222;stroke-width:1.0;"/><!--link *start* to InicioDelDia--><g id="link_*start*_InicioDelDia"><path d="M347.95,26 C347.95,42.63 347.95,72.66 347.95,96.87 " fill="none" id="*start*-to-InicioDelDia" style="stroke:#181818;stroke-width:1.0;"/><polygon fill="#181818" points="347.95,102.87,351.95,93.87,347.95,97.87,343.95,93.87,347.95,102.87" style="stroke:#181818;stroke-width:1.0;"/><text fill="#000000" font-family="sans-serif" font-size="13" lengthAdjust="spacing" textLength="104.0381" x="348.95" y="69.0669">Comienza el d&#237;a</text></g><!--link InicioDelDia to InicioRuta--><g id="link_InicioDelDia_InicioRuta"><path d="M347.95,153.1 C347.95,175.24 347.95,201.86 347.95,223.97 " fill="none" id="InicioDelDia-to-InicioRuta" style="stroke:#181818;stroke-width:1.0;"/><polygon fill="#181818" points="347.95,229.97,351.95,220.97,347.95,224.97,343.95,220.97,347.95,229.97" style="stroke:#181818;stroke-width:1.0;"/><text fill="#000000" font-family="sans-serif" font-size="13" lengthAdjust="spacing" textLength="74.2231" x="348.95" y="196.0669">Iniciar Ruta</text></g><!--link InicioRuta to Parada--><g id="link_InicioRuta_Parada"><path d="M307.19,280.03 C297.07,288.17 287.53,298.23 281.95,310 C275.08,324.49 274.914,336.6719 277.444,350.9619 " fill="none" id="InicioRuta-to-Parada" style="stroke:#181818;stroke-width:1.0;"/><polygon fill="#181818" points="278.49,356.87,280.8597,347.3105,277.6183,351.9466,272.9822,348.7052,278.49,356.87" style="stroke:#181818;stroke-width:1.0;"/><text fill="#000000" font-family="sans-serif" font-size="13" lengthAdjust="spacing" textLength="101.9814" x="282.95" y="323.0669">Llegar a Parada</text></g><!--link Parada to RecogePasajero--><g id="link_Parada_RecogePasajero"><path d="M285.91,407.1 C286.8,429.24 287.8587,455.8649 288.7487,477.9749 " fill="none" id="Parada-to-RecogePasajero" style="stroke:#181818;stroke-width:1.0;"/><polygon fill="#181818" points="288.99,483.97,292.6248,474.8164,288.7889,478.974,284.6313,475.1382,288.99,483.97" style="stroke:#181818;stroke-width:1.0;"/><text fill="#000000" font-family="sans-serif" font-size="13" lengthAdjust="spacing" textLength="90.8477" x="287.95" y="450.0669">Pasajero sube</text></g><!--link RecogePasajero to SigueRuta--><g id="link_RecogePasajero_SigueRuta"><path d="M252.35,534.1 C217.82,556.24 171.9816,585.6226 137.4816,607.7326 " fill="none" id="RecogePasajero-to-SigueRuta" style="stroke:#181818;stroke-width:1.0;"/><polygon fill="#181818" points="132.43,610.97,142.1657,609.4816,136.6397,608.2721,137.8492,602.7461,132.43,610.97" style="stroke:#181818;stroke-width:1.0;"/><text fill="#000000" font-family="sans-serif" font-size="13" lengthAdjust="spacing" textLength="63.7686" x="204.95" y="577.0669">Continuar</text></g><!--link SigueRuta to Parada--><g id="link_SigueRuta_Parada"><path d="M89.53,610.92 C83.8,579.22 78.6,522.96 102.95,484 C136.08,430.98 201.781,405.1489 244.641,392.8989 " fill="none" id="SigueRuta-to-Parada" style="stroke:#181818;stroke-width:1.0;"/><polygon fill="#181818" points="250.41,391.25,240.6573,389.8773,245.6025,392.6241,242.8558,397.5693,250.41,391.25" style="stroke:#181818;stroke-width:1.0;"/><text fill="#000000" font-family="sans-serif" font-size="13" lengthAdjust="spacing" textLength="102.9526" x="103.95" y="513.5669">Pr&#243;xima parada</text></g><!--link SigueRuta to Incidencia--><g id="link_SigueRuta_Incidencia"><path d="M136.79,661.1 C175.22,683.24 226.6507,712.8655 265.0407,734.9755 " fill="none" id="SigueRuta-to-Incidencia" style="stroke:#181818;stroke-width:1.0;"/><polygon fill="#181818" points="270.24,737.97,264.4373,730.0121,265.9072,735.4746,260.4447,736.9445,270.24,737.97" style="stroke:#181818;stroke-width:1.0;"/><text fill="#000000" font-family="sans-serif" font-size="13" lengthAdjust="spacing" textLength="142.8413" x="216.95" y="704.0669">Ocurre una incidencia</text></g><!--link Incidencia to GestionaIncidencia--><g id="link_Incidencia_GestionaIncidencia"><path d="M277.05,788.1 C245,810.24 202.6973,839.4508 170.6773,861.5608 " fill="none" id="Incidencia-to-GestionaIncidencia" style="stroke:#181818;stroke-width:1.0;"/><polygon fill="#181818" points="165.74,864.97,175.4188,863.1477,169.8544,862.129,170.8731,856.5646,165.74,864.97" style="stroke:#181818;stroke-width:1.0;"/><text fill="#000000" font-family="sans-serif" font-size="13" lengthAdjust="spacing" textLength="134.1831" x="232.95" y="831.0669">Reportar y gestionar</text></g><!--link GestionaIncidencia to SigueRuta--><g id="link_GestionaIncidencia_SigueRuta"><path d="M126.27,864.98 C122.38,844.56 116.88,814.43 112.95,788 C106.31,743.34 101.1337,696.9375 98.0137,667.0875 " fill="none" id="GestionaIncidencia-to-SigueRuta" style="stroke:#181818;stroke-width:1.0;"/><polygon fill="#181818" points="97.39,661.12,94.3473,670.4871,97.9098,666.0929,102.3039,669.6554,97.39,661.12" style="stroke:#181818;stroke-width:1.0;"/><text fill="#000000" font-family="sans-serif" font-size="13" lengthAdjust="spacing" textLength="134.2021" x="113.95" y="767.5669">Resolver y continuar</text></g><!--link GestionaIncidencia to FinRuta--><g id="link_GestionaIncidencia_FinRuta"><path d="M130.95,915.1 C130.95,937.24 130.95,963.86 130.95,985.97 " fill="none" id="GestionaIncidencia-to-FinRuta" style="stroke:#181818;stroke-width:1.0;"/><polygon fill="#181818" points="130.95,991.97,134.95,982.97,130.95,986.97,126.95,982.97,130.95,991.97" style="stroke:#181818;stroke-width:1.0;"/><text fill="#000000" font-family="sans-serif" font-size="13" lengthAdjust="spacing" textLength="230.604" x="131.95" y="958.0669">Terminar Ruta por incidencia grave</text></g><!--link SigueRuta to FinRuta--><g id="link_SigueRuta_FinRuta"><path d="M75.84,661.2 C49.44,697.45 6,768.68 14.95,835 C19.88,871.54 18.98,882.8 36.95,915 C53.64,944.91 76.5579,968.8978 97.4779,987.7978 " fill="none" id="SigueRuta-to-FinRuta" style="stroke:#181818;stroke-width:1.0;"/><polygon fill="#181818" points="101.93,991.82,97.9333,982.8185,98.2199,988.4681,92.5703,988.7547,101.93,991.82" style="stroke:#181818;stroke-width:1.0;"/><text fill="#000000" font-family="sans-serif" font-size="13" lengthAdjust="spacing" textLength="93.5771" x="15.95" y="831.0669">Terminar Ruta</text></g><!--link FinRuta to InicioRuta--><g id="link_FinRuta_InicioRuta"><path d="M167.55,1015.89 C243.45,1013.54 410.95,996.41 410.95,891 C410.95,381 410.95,381 410.95,381 C410.95,347.96 404.06,339.38 388.95,310 C383.57,299.53 379.8485,293.7088 372.7885,284.7688 " fill="none" id="FinRuta-to-InicioRuta" style="stroke:#181818;stroke-width:1.0;"/><polygon fill="#181818" points="369.07,280.06,371.5087,289.6022,372.1688,283.984,377.787,284.6441,369.07,280.06" style="stroke:#181818;stroke-width:1.0;"/><text fill="#000000" font-family="sans-serif" font-size="13" lengthAdjust="spacing" textLength="91.0317" x="411.95" y="640.5669">Reiniciar Ruta</text></g><!--link FinRuta to FinDelDia--><g id="link_FinRuta_FinDelDia"><path d="M130.95,1042.1 C130.95,1064.24 130.95,1090.86 130.95,1112.97 " fill="none" id="FinRuta-to-FinDelDia" style="stroke:#181818;stroke-width:1.0;"/><polygon fill="#181818" points="130.95,1118.97,134.95,1109.97,130.95,1113.97,126.95,1109.97,130.95,1118.97" style="stroke:#181818;stroke-width:1.0;"/><text fill="#000000" font-family="sans-serif" font-size="13" lengthAdjust="spacing" textLength="93.4692" x="131.95" y="1085.0669">Termina el d&#237;a</text></g><!--link FinDelDia to *end*--><g id="link_FinDelDia_*end*"><path d="M130.95,1169.09 C130.95,1193.06 130.95,1222.7 130.95,1239.94 " fill="none" id="FinDelDia-to-*end*" style="stroke:#181818;stroke-width:1.0;"/><polygon fill="#181818" points="130.95,1245.94,134.95,1236.94,130.95,1240.94,126.95,1236.94,130.95,1245.94" style="stroke:#181818;stroke-width:1.0;"/><text fill="#000000" font-family="sans-serif" font-size="13" lengthAdjust="spacing" textLength="78.8633" x="131.95" y="1212.0669">Final del d&#237;a</text></g><!--SRC=[TP9DJWCn38NtEONNIBr05snQWIeXCHhOLInCnegCPfBACwc0Ex7Y2BqOSKapFz1DvFXzBuuJxszUOBMwXPrdos5BxPOHrh097PF_HA0McjCN6ZC3HaST1-NF6nJGxOKzIqfMADWezT2IIn3cZCc2CZNPuAZ27jz8Gc9BsCTNCWjP7K_i8kNoc-07zX75ZDbPvKfEt-_S8Hn-Ao-udRVSK5gKVRHHX21w12vvCq7KSK_zmC7Zp5dJ8SYGElm0btKn_v3BwzVKX_P8whEbaok-E_RPzKpIiS-F3gdovBhW18-qRFEArrpoVxwr9fv-x9HBSPcMV5ePbb5JSfz6RAqy9ZaZFm00]--></g></svg>