<svg xmlns="http://www.w3.org/2000/svg" xmlns:xlink="http://www.w3.org/1999/xlink" contentStyleType="text/css" height="800px" preserveAspectRatio="none" style="width:581px;height:800px;background:#FFFFFF;" version="1.1" viewBox="0 0 581 800" width="581px" zoomAndPan="magnify"><defs/><g><!--class Veh?culo--><g id="elem_Veh&#237;culo"><rect codeLine="1" fill="#F1F1F1" height="64.2969" id="Veh&#237;culo" rx="2.5" ry="2.5" style="stroke:#181818;stroke-width:0.5;" width="129.8994" x="230.5" y="7"/><ellipse cx="262.5644" cy="23" fill="#ADD1B2" rx="11" ry="11" style="stroke:#181818;stroke-width:1.0;"/><path d="M265.5332,28.6406 Q264.955,28.9375 264.3144,29.0781 Q263.6738,29.2344 262.9707,29.2344 Q260.4707,29.2344 259.1425,27.5938 Q257.83,25.9375 257.83,22.8125 Q257.83,19.6875 259.1425,18.0313 Q260.4707,16.375 262.9707,16.375 Q263.6738,16.375 264.3144,16.5313 Q264.9707,16.6875 265.5332,16.9844 L265.5332,19.7031 Q264.9082,19.125 264.3144,18.8594 Q263.7207,18.5781 263.0957,18.5781 Q261.7519,18.5781 261.0644,19.6563 Q260.3769,20.7188 260.3769,22.8125 Q260.3769,24.9063 261.0644,25.9844 Q261.7519,27.0469 263.0957,27.0469 Q263.7207,27.0469 264.3144,26.7813 Q264.9082,26.5 265.5332,25.9219 L265.5332,28.6406 Z " fill="#000000"/><text fill="#000000" font-family="sans-serif" font-size="14" lengthAdjust="spacing" textLength="59.9785" x="280.3565" y="27.8467">Veh&#237;culo</text><line style="stroke:#181818;stroke-width:0.5;" x1="231.5" x2="359.3994" y1="39" y2="39"/><text fill="#000000" font-family="sans-serif" font-size="14" lengthAdjust="spacing" textLength="117.8994" x="236.5" y="55.9951">tipo = "Autob&#250;s"</text><line style="stroke:#181818;stroke-width:0.5;" x1="231.5" x2="359.3994" y1="63.2969" y2="63.2969"/></g><!--class Conductor--><g id="elem_Conductor"><rect codeLine="4" fill="#F1F1F1" height="64.2969" id="Conductor" rx="2.5" ry="2.5" style="stroke:#181818;stroke-width:0.5;" width="148.8418" x="7" y="148"/><ellipse cx="41.9622" cy="164" fill="#ADD1B2" rx="11" ry="11" style="stroke:#181818;stroke-width:1.0;"/><path d="M44.9309,169.6406 Q44.3528,169.9375 43.7122,170.0781 Q43.0715,170.2344 42.3684,170.2344 Q39.8684,170.2344 38.5403,168.5938 Q37.2278,166.9375 37.2278,163.8125 Q37.2278,160.6875 38.5403,159.0313 Q39.8684,157.375 42.3684,157.375 Q43.0715,157.375 43.7122,157.5313 Q44.3684,157.6875 44.9309,157.9844 L44.9309,160.7031 Q44.3059,160.125 43.7122,159.8594 Q43.1184,159.5781 42.4934,159.5781 Q41.1497,159.5781 40.4622,160.6563 Q39.7747,161.7188 39.7747,163.8125 Q39.7747,165.9063 40.4622,166.9844 Q41.1497,168.0469 42.4934,168.0469 Q43.1184,168.0469 43.7122,167.7813 Q44.3059,167.5 44.9309,166.9219 L44.9309,169.6406 Z " fill="#000000"/><text fill="#000000" font-family="sans-serif" font-size="14" lengthAdjust="spacing" textLength="72.4814" x="60.3982" y="168.8467">Conductor</text><line style="stroke:#181818;stroke-width:0.5;" x1="8" x2="154.8418" y1="180" y2="180"/><text fill="#000000" font-family="sans-serif" font-size="14" lengthAdjust="spacing" textLength="136.8418" x="13" y="196.9951">nombre = "Andr&#233;s"</text><line style="stroke:#181818;stroke-width:0.5;" x1="8" x2="154.8418" y1="204.2969" y2="204.2969"/></g><!--class Horario--><g id="elem_Horario"><rect codeLine="7" fill="#F1F1F1" height="64.2969" id="Horario" rx="2.5" ry="2.5" style="stroke:#181818;stroke-width:0.5;" width="184.0879" x="21.5" y="729"/><ellipse cx="83.4746" cy="745" fill="#ADD1B2" rx="11" ry="11" style="stroke:#181818;stroke-width:1.0;"/><path d="M86.4434,750.6406 Q85.8652,750.9375 85.2246,751.0781 Q84.584,751.2344 83.8809,751.2344 Q81.3809,751.2344 80.0527,749.5938 Q78.7402,747.9375 78.7402,744.8125 Q78.7402,741.6875 80.0527,740.0313 Q81.3809,738.375 83.8809,738.375 Q84.584,738.375 85.2246,738.5313 Q85.8809,738.6875 86.4434,738.9844 L86.4434,741.7031 Q85.8184,741.125 85.2246,740.8594 Q84.6309,740.5781 84.0059,740.5781 Q82.6621,740.5781 81.9746,741.6563 Q81.2871,742.7188 81.2871,744.8125 Q81.2871,746.9063 81.9746,747.9844 Q82.6621,749.0469 84.0059,749.0469 Q84.6309,749.0469 85.2246,748.7813 Q85.8184,748.5 86.4434,747.9219 L86.4434,750.6406 Z " fill="#000000"/><text fill="#000000" font-family="sans-serif" font-size="14" lengthAdjust="spacing" textLength="51.6387" x="103.9746" y="749.8467">Horario</text><line style="stroke:#181818;stroke-width:0.5;" x1="22.5" x2="204.5879" y1="761" y2="761"/><text fill="#000000" font-family="sans-serif" font-size="14" lengthAdjust="spacing" textLength="172.0879" x="27.5" y="777.9951">Frecuencia = "Cada 20'"</text><line style="stroke:#181818;stroke-width:0.5;" x1="22.5" x2="204.5879" y1="785.2969" y2="785.2969"/></g><!--class Empresa--><g id="elem_Empresa"><rect codeLine="10" fill="#F1F1F1" height="64.2969" id="Empresa" rx="2.5" ry="2.5" style="stroke:#181818;stroke-width:0.5;" width="121.71" x="303.5" y="148"/><ellipse cx="331.1439" cy="164" fill="#ADD1B2" rx="11" ry="11" style="stroke:#181818;stroke-width:1.0;"/><path d="M334.1127,169.6406 Q333.5346,169.9375 332.8939,170.0781 Q332.2533,170.2344 331.5502,170.2344 Q329.0502,170.2344 327.7221,168.5938 Q326.4096,166.9375 326.4096,163.8125 Q326.4096,160.6875 327.7221,159.0313 Q329.0502,157.375 331.5502,157.375 Q332.2533,157.375 332.8939,157.5313 Q333.5502,157.6875 334.1127,157.9844 L334.1127,160.7031 Q333.4877,160.125 332.8939,159.8594 Q332.3002,159.5781 331.6752,159.5781 Q330.3314,159.5781 329.6439,160.6563 Q328.9564,161.7188 328.9564,163.8125 Q328.9564,165.9063 329.6439,166.9844 Q330.3314,168.0469 331.6752,168.0469 Q332.3002,168.0469 332.8939,167.7813 Q333.4877,167.5 334.1127,166.9219 L334.1127,169.6406 Z " fill="#000000"/><text fill="#000000" font-family="sans-serif" font-size="14" lengthAdjust="spacing" textLength="61.6123" x="347.9537" y="168.8467">Empresa</text><line style="stroke:#181818;stroke-width:0.5;" x1="304.5" x2="424.21" y1="180" y2="180"/><text fill="#000000" font-family="sans-serif" font-size="14" lengthAdjust="spacing" textLength="109.71" x="309.5" y="196.9951">Nombre ="Tus"</text><line style="stroke:#181818;stroke-width:0.5;" x1="304.5" x2="424.21" y1="204.2969" y2="204.2969"/></g><!--class Incidencia--><g id="elem_Incidencia"><rect codeLine="13" fill="#F1F1F1" height="64.2969" id="Incidencia" rx="2.5" ry="2.5" style="stroke:#181818;stroke-width:0.5;" width="228.4805" x="346.5" y="289"/><ellipse cx="420.9263" cy="305" fill="#ADD1B2" rx="11" ry="11" style="stroke:#181818;stroke-width:1.0;"/><path d="M423.895,310.6406 Q423.3169,310.9375 422.6763,311.0781 Q422.0356,311.2344 421.3325,311.2344 Q418.8325,311.2344 417.5044,309.5938 Q416.1919,307.9375 416.1919,304.8125 Q416.1919,301.6875 417.5044,300.0313 Q418.8325,298.375 421.3325,298.375 Q422.0356,298.375 422.6763,298.5313 Q423.3325,298.6875 423.895,298.9844 L423.895,301.7031 Q423.27,301.125 422.6763,300.8594 Q422.0825,300.5781 421.4575,300.5781 Q420.1138,300.5781 419.4263,301.6563 Q418.7388,302.7188 418.7388,304.8125 Q418.7388,306.9063 419.4263,307.9844 Q420.1138,309.0469 421.4575,309.0469 Q422.0825,309.0469 422.6763,308.7813 Q423.27,308.5 423.895,307.9219 L423.895,310.6406 Z " fill="#000000"/><text fill="#000000" font-family="sans-serif" font-size="14" lengthAdjust="spacing" textLength="71.1279" x="441.4263" y="309.8467">Incidencia</text><line style="stroke:#181818;stroke-width:0.5;" x1="347.5" x2="573.9805" y1="321" y2="321"/><text fill="#000000" font-family="sans-serif" font-size="14" lengthAdjust="spacing" textLength="216.4805" x="352.5" y="337.9951">Tipo ="Fallo lector de tarjetas"</text><line style="stroke:#181818;stroke-width:0.5;" x1="347.5" x2="573.9805" y1="345.2969" y2="345.2969"/></g><!--class Tarifa--><g id="elem_Tarifa"><rect codeLine="16" fill="#F1F1F1" height="80.5938" id="Tarifa" rx="2.5" ry="2.5" style="stroke:#181818;stroke-width:0.5;" width="111.0117" x="163" y="430"/><ellipse cx="195.4274" cy="446" fill="#ADD1B2" rx="11" ry="11" style="stroke:#181818;stroke-width:1.0;"/><path d="M198.3961,451.6406 Q197.818,451.9375 197.1774,452.0781 Q196.5368,452.2344 195.8336,452.2344 Q193.3336,452.2344 192.0055,450.5938 Q190.693,448.9375 190.693,445.8125 Q190.693,442.6875 192.0055,441.0313 Q193.3336,439.375 195.8336,439.375 Q196.5368,439.375 197.1774,439.5313 Q197.8336,439.6875 198.3961,439.9844 L198.3961,442.7031 Q197.7711,442.125 197.1774,441.8594 Q196.5836,441.5781 195.9586,441.5781 Q194.6149,441.5781 193.9274,442.6563 Q193.2399,443.7188 193.2399,445.8125 Q193.2399,447.9063 193.9274,448.9844 Q194.6149,450.0469 195.9586,450.0469 Q196.5836,450.0469 197.1774,449.7813 Q197.7711,449.5 198.3961,448.9219 L198.3961,451.6406 Z " fill="#000000"/><text fill="#000000" font-family="sans-serif" font-size="14" lengthAdjust="spacing" textLength="40.2842" x="213.3001" y="450.8467">Tarifa</text><line style="stroke:#181818;stroke-width:0.5;" x1="164" x2="273.0117" y1="462" y2="462"/><text fill="#000000" font-family="sans-serif" font-size="14" lengthAdjust="spacing" textLength="99.0117" x="169" y="478.9951">Tipo = "Bono"</text><text fill="#000000" font-family="sans-serif" font-size="14" lengthAdjust="spacing" textLength="81.8535" x="169" y="495.292">precio = 5&#8364;</text><line style="stroke:#181818;stroke-width:0.5;" x1="164" x2="273.0117" y1="502.5938" y2="502.5938"/></g><!--class Servicio--><g id="elem_Servicio"><rect codeLine="20" fill="#F1F1F1" height="64.2969" id="Servicio" rx="2.5" ry="2.5" style="stroke:#181818;stroke-width:0.5;" width="122.1406" x="134.5" y="588"/><ellipse cx="165.0509" cy="604" fill="#ADD1B2" rx="11" ry="11" style="stroke:#181818;stroke-width:1.0;"/><path d="M168.0197,609.6406 Q167.4416,609.9375 166.8009,610.0781 Q166.1603,610.2344 165.4572,610.2344 Q162.9572,610.2344 161.6291,608.5938 Q160.3166,606.9375 160.3166,603.8125 Q160.3166,600.6875 161.6291,599.0313 Q162.9572,597.375 165.4572,597.375 Q166.1603,597.375 166.8009,597.5313 Q167.4572,597.6875 168.0197,597.9844 L168.0197,600.7031 Q167.3947,600.125 166.8009,599.8594 Q166.2072,599.5781 165.5822,599.5781 Q164.2384,599.5781 163.5509,600.6563 Q162.8634,601.7188 162.8634,603.8125 Q162.8634,605.9063 163.5509,606.9844 Q164.2384,608.0469 165.5822,608.0469 Q166.2072,608.0469 166.8009,607.7813 Q167.3947,607.5 168.0197,606.9219 L168.0197,609.6406 Z " fill="#000000"/><text fill="#000000" font-family="sans-serif" font-size="14" lengthAdjust="spacing" textLength="55.583" x="182.5067" y="608.8467">Servicio</text><line style="stroke:#181818;stroke-width:0.5;" x1="135.5" x2="255.6406" y1="620" y2="620"/><text fill="#000000" font-family="sans-serif" font-size="14" lengthAdjust="spacing" textLength="110.1406" x="140.5" y="636.9951">Tipo = "Diurno"</text><line style="stroke:#181818;stroke-width:0.5;" x1="135.5" x2="255.6406" y1="644.2969" y2="644.2969"/></g><!--class MetodoPago--><g id="elem_MetodoPago"><rect codeLine="23" fill="#F1F1F1" height="48" id="MetodoPago" rx="2.5" ry="2.5" style="stroke:#181818;stroke-width:0.5;" width="118.6729" x="292" y="596"/><ellipse cx="307" cy="612" fill="#A9DCDF" rx="11" ry="11" style="stroke:#181818;stroke-width:1.0;"/><path d="M307.1094,607.3438 L305.9531,612.4219 L308.2813,612.4219 L307.1094,607.3438 Z M305.625,605.1094 L308.6094,605.1094 L311.9688,617.5 L309.5156,617.5 L308.75,614.4375 L305.4688,614.4375 L304.7188,617.5 L302.2813,617.5 L305.625,605.1094 Z " fill="#000000"/><text fill="#000000" font-family="sans-serif" font-size="14" font-style="italic" lengthAdjust="spacing" textLength="86.6729" x="321" y="616.8467">MetodoPago</text><line style="stroke:#181818;stroke-width:0.5;" x1="293" x2="409.6729" y1="628" y2="628"/><line style="stroke:#181818;stroke-width:0.5;" x1="293" x2="409.6729" y1="636" y2="636"/></g><!--class Tarjeta--><g id="elem_Tarjeta"><rect codeLine="24" fill="#F1F1F1" height="48" id="Tarjeta" rx="2.5" ry="2.5" style="stroke:#181818;stroke-width:0.5;" width="81.458" x="273" y="737"/><ellipse cx="288" cy="753" fill="#ADD1B2" rx="11" ry="11" style="stroke:#181818;stroke-width:1.0;"/><path d="M290.9688,758.6406 Q290.3906,758.9375 289.75,759.0781 Q289.1094,759.2344 288.4063,759.2344 Q285.9063,759.2344 284.5781,757.5938 Q283.2656,755.9375 283.2656,752.8125 Q283.2656,749.6875 284.5781,748.0313 Q285.9063,746.375 288.4063,746.375 Q289.1094,746.375 289.75,746.5313 Q290.4063,746.6875 290.9688,746.9844 L290.9688,749.7031 Q290.3438,749.125 289.75,748.8594 Q289.1563,748.5781 288.5313,748.5781 Q287.1875,748.5781 286.5,749.6563 Q285.8125,750.7188 285.8125,752.8125 Q285.8125,754.9063 286.5,755.9844 Q287.1875,757.0469 288.5313,757.0469 Q289.1563,757.0469 289.75,756.7813 Q290.3438,756.5 290.9688,755.9219 L290.9688,758.6406 Z " fill="#000000"/><text fill="#000000" font-family="sans-serif" font-size="14" lengthAdjust="spacing" textLength="49.458" x="302" y="757.8467">Tarjeta</text><line style="stroke:#181818;stroke-width:0.5;" x1="274" x2="353.458" y1="769" y2="769"/><line style="stroke:#181818;stroke-width:0.5;" x1="274" x2="353.458" y1="777" y2="777"/></g><!--class Efectivo--><g id="elem_Efectivo"><rect codeLine="25" fill="#F1F1F1" height="48" id="Efectivo" rx="2.5" ry="2.5" style="stroke:#181818;stroke-width:0.5;" width="88.3145" x="389.5" y="737"/><ellipse cx="404.5" cy="753" fill="#ADD1B2" rx="11" ry="11" style="stroke:#181818;stroke-width:1.0;"/><path d="M407.4688,758.6406 Q406.8906,758.9375 406.25,759.0781 Q405.6094,759.2344 404.9063,759.2344 Q402.4063,759.2344 401.0781,757.5938 Q399.7656,755.9375 399.7656,752.8125 Q399.7656,749.6875 401.0781,748.0313 Q402.4063,746.375 404.9063,746.375 Q405.6094,746.375 406.25,746.5313 Q406.9063,746.6875 407.4688,746.9844 L407.4688,749.7031 Q406.8438,749.125 406.25,748.8594 Q405.6563,748.5781 405.0313,748.5781 Q403.6875,748.5781 403,749.6563 Q402.3125,750.7188 402.3125,752.8125 Q402.3125,754.9063 403,755.9844 Q403.6875,757.0469 405.0313,757.0469 Q405.6563,757.0469 406.25,756.7813 Q406.8438,756.5 407.4688,755.9219 L407.4688,758.6406 Z " fill="#000000"/><text fill="#000000" font-family="sans-serif" font-size="14" lengthAdjust="spacing" textLength="56.3145" x="418.5" y="757.8467">Efectivo</text><line style="stroke:#181818;stroke-width:0.5;" x1="390.5" x2="476.8145" y1="769" y2="769"/><line style="stroke:#181818;stroke-width:0.5;" x1="390.5" x2="476.8145" y1="777" y2="777"/></g><!--class Pasajero--><g id="elem_Pasajero"><rect codeLine="26" fill="#F1F1F1" height="64.2969" id="Pasajero" rx="2.5" ry="2.5" style="stroke:#181818;stroke-width:0.5;" width="113.4043" x="162" y="289"/><ellipse cx="186.7585" cy="305" fill="#ADD1B2" rx="11" ry="11" style="stroke:#181818;stroke-width:1.0;"/><path d="M189.7272,310.6406 Q189.1491,310.9375 188.5085,311.0781 Q187.8679,311.2344 187.1647,311.2344 Q184.6647,311.2344 183.3366,309.5938 Q182.0241,307.9375 182.0241,304.8125 Q182.0241,301.6875 183.3366,300.0313 Q184.6647,298.375 187.1647,298.375 Q187.8679,298.375 188.5085,298.5313 Q189.1647,298.6875 189.7272,298.9844 L189.7272,301.7031 Q189.1022,301.125 188.5085,300.8594 Q187.9147,300.5781 187.2897,300.5781 Q185.946,300.5781 185.2585,301.6563 Q184.571,302.7188 184.571,304.8125 Q184.571,306.9063 185.2585,307.9844 Q185.946,309.0469 187.2897,309.0469 Q187.9147,309.0469 188.5085,308.7813 Q189.1022,308.5 189.7272,307.9219 L189.7272,310.6406 Z " fill="#000000"/><text fill="#000000" font-family="sans-serif" font-size="14" lengthAdjust="spacing" textLength="59.7188" x="202.9271" y="309.8467">Pasajero</text><line style="stroke:#181818;stroke-width:0.5;" x1="163" x2="274.4043" y1="321" y2="321"/><text fill="#000000" font-family="sans-serif" font-size="14" lengthAdjust="spacing" textLength="101.4043" x="168" y="337.9951">Cantidad = 10</text><line style="stroke:#181818;stroke-width:0.5;" x1="163" x2="274.4043" y1="345.2969" y2="345.2969"/></g><!--link Veh?culo to Conductor--><g id="link_Veh&#237;culo_Conductor"><path codeLine="30" d="M230.45,64.99 C208.35,74.78 184.07,87.03 163.5,101 C143.83,114.36 128.6194,128.2051 113.6294,143.6451 " fill="none" id="Veh&#237;culo-to-Conductor" style="stroke:#181818;stroke-width:1.0;"/><polygon fill="#181818" points="109.45,147.95,118.5891,144.2789,112.9329,144.3626,112.8492,138.7063,109.45,147.95" style="stroke:#181818;stroke-width:1.0;"/><text fill="#000000" font-family="sans-serif" font-size="13" lengthAdjust="spacing" textLength="35.7881" x="164.5" y="114.0669">Tiene</text></g><!--link Veh?culo to Empresa--><g id="link_Veh&#237;culo_Empresa"><path codeLine="31" d="M310.98,71.19 C322.35,94.09 335.0527,119.6655 346.4027,142.5355 " fill="none" id="Veh&#237;culo-to-Empresa" style="stroke:#181818;stroke-width:1.0;"/><polygon fill="#181818" points="349.07,147.91,348.6521,138.07,346.8473,143.4312,341.486,141.6264,349.07,147.91" style="stroke:#181818;stroke-width:1.0;"/><text fill="#000000" font-family="sans-serif" font-size="13" lengthAdjust="spacing" textLength="65.6602" x="335.5" y="114.0669">Pertenece</text></g><!--link Empresa to Incidencia--><g id="link_Empresa_Incidencia"><path codeLine="32" d="M381.36,212.05 C389.63,226.63 400.06,244.05 410.5,259 C417.48,268.99 421.8363,274.778 429.5263,284.118 " fill="none" id="Empresa-to-Incidencia" style="stroke:#181818;stroke-width:1.0;"/><polygon fill="#181818" points="433.34,288.75,430.7074,279.2595,430.1619,284.89,424.5314,284.3445,433.34,288.75" style="stroke:#181818;stroke-width:1.0;"/><text fill="#000000" font-family="sans-serif" font-size="13" lengthAdjust="spacing" textLength="57.7129" x="411.5" y="255.0669">Gestiona</text></g><!--link Conductor to Horario--><g id="link_Conductor_Horario"><path codeLine="33" d="M81.5,212.19 C81.5,240.36 81.5,282.96 81.5,320 C81.5,320 81.5,320 81.5,621 C81.5,658.76 90.9829,695.1612 100.1629,723.0312 " fill="none" id="Conductor-to-Horario" style="stroke:#181818;stroke-width:1.0;"/><polygon fill="#181818" points="102.04,728.73,103.0235,718.9304,100.4757,723.981,95.4251,721.4332,102.04,728.73" style="stroke:#181818;stroke-width:1.0;"/><text fill="#000000" font-family="sans-serif" font-size="13" lengthAdjust="spacing" textLength="36.353" x="82.5" y="475.0669">Sigue</text></g><!--link Conductor to Pasajero--><g id="link_Conductor_Pasajero"><path codeLine="34" d="M107.58,212.12 C120.17,226.71 135.72,244.12 150.5,259 C160.45,269.02 167.2283,275.4395 177.6683,284.7795 " fill="none" id="Conductor-to-Pasajero" style="stroke:#181818;stroke-width:1.0;"/><polygon fill="#181818" points="182.14,288.78,178.0995,279.7981,178.4136,285.4462,172.7655,285.7603,182.14,288.78" style="stroke:#181818;stroke-width:1.0;"/><text fill="#000000" font-family="sans-serif" font-size="13" lengthAdjust="spacing" textLength="48.3818" x="151.5" y="255.0669">Recoge</text></g><!--link Pasajero to Tarifa--><g id="link_Pasajero_Tarifa"><path codeLine="35" d="M218.5,353.28 C218.5,375.61 218.5,399.81 218.5,423.83 " fill="none" id="Pasajero-to-Tarifa" style="stroke:#181818;stroke-width:1.0;"/><polygon fill="#181818" points="218.5,429.83,222.5,420.83,218.5,424.83,214.5,420.83,218.5,429.83" style="stroke:#181818;stroke-width:1.0;"/><text fill="#000000" font-family="sans-serif" font-size="13" lengthAdjust="spacing" textLength="32.0239" x="219.5" y="396.0669">Paga</text></g><!--link Tarifa to Servicio--><g id="link_Tarifa_Servicio"><path codeLine="36" d="M212.34,511.03 C208.58,535.09 204.7845,559.4717 201.2945,581.8517 " fill="none" id="Tarifa-to-Servicio" style="stroke:#181818;stroke-width:1.0;"/><polygon fill="#181818" points="200.37,587.78,205.709,579.5038,201.1404,582.8397,197.8045,578.2712,200.37,587.78" style="stroke:#181818;stroke-width:1.0;"/><text fill="#000000" font-family="sans-serif" font-size="13" lengthAdjust="spacing" textLength="58.7476" x="208.5" y="554.0669">Depende</text></g><!--link Tarifa to MetodoPago--><g id="link_Tarifa_MetodoPago"><path codeLine="37" d="M254.14,511.03 C278.61,538.16 306.222,568.784 326.682,591.474 " fill="none" id="Tarifa-to-MetodoPago" style="stroke:#181818;stroke-width:1.0;"/><polygon fill="#181818" points="330.7,595.93,327.6436,586.5674,327.3517,592.2167,321.7023,591.9247,330.7,595.93" style="stroke:#181818;stroke-width:1.0;"/><text fill="#000000" font-family="sans-serif" font-size="13" lengthAdjust="spacing" textLength="75.7148" x="294.5" y="554.0669">Pagada con</text></g><!--link Pasajero to Veh?culo--><g id="link_Pasajero_Veh&#237;culo"><path codeLine="38" d="M220.17,288.93 C222.7,254 228.86,195.9 243.5,148 C251.77,120.93 263.06,97.4091 274.52,76.3691 " fill="none" id="Pasajero-to-Veh&#237;culo" style="stroke:#181818;stroke-width:1.0;"/><polygon fill="#181818" points="277.39,71.1,269.5723,77.0903,274.9984,75.4909,276.5978,80.9169,277.39,71.1" style="stroke:#181818;stroke-width:1.0;"/><text fill="#000000" font-family="sans-serif" font-size="13" lengthAdjust="spacing" textLength="40.9805" x="244.5" y="184.5669">Suben</text></g><!--link Servicio to Horario--><g id="link_Servicio_Horario"><path codeLine="39" d="M177.1,652.19 C163.59,675.09 148.3783,700.8721 134.8883,723.7421 " fill="none" id="Servicio-to-Horario" style="stroke:#181818;stroke-width:1.0;"/><polygon fill="#181818" points="131.84,728.91,139.8578,723.1903,134.3803,724.6034,132.9672,719.1259,131.84,728.91" style="stroke:#181818;stroke-width:1.0;"/><text fill="#000000" font-family="sans-serif" font-size="13" lengthAdjust="spacing" textLength="99.9058" x="160.5" y="695.0669">Programado en</text></g><!--link Incidencia to Veh?culo--><g id="link_Incidencia_Veh&#237;culo"><path codeLine="40" d="M468.45,288.86 C470.53,279.34 472.47,268.8 473.5,259 C478.87,208.06 465.48,193.77 442.5,148 C431.05,125.19 428.6,117.93 409.5,101 C395.13,88.27 382.942,80.0674 366.022,71.0274 " fill="none" id="Incidencia-to-Veh&#237;culo" style="stroke:#181818;stroke-width:1.0;"/><polygon fill="#181818" points="360.73,68.2,366.7831,75.9692,365.14,70.5562,370.553,68.9131,360.73,68.2" style="stroke:#181818;stroke-width:1.0;"/><text fill="#000000" font-family="sans-serif" font-size="13" lengthAdjust="spacing" textLength="70.6621" x="473.5" y="184.5669">Asociada a</text></g><!--reverse link MetodoPago to Tarjeta--><g id="link_MetodoPago_Tarjeta"><path codeLine="41" d="M340.3947,661.6332 C333.3847,687.2832 326.9,710.97 319.88,736.66 " fill="none" id="MetodoPago-backto-Tarjeta" style="stroke:#181818;stroke-width:1.0;"/><polygon fill="none" points="345.14,644.27,334.607,660.0515,346.1825,663.215,345.14,644.27" style="stroke:#181818;stroke-width:1.0;"/></g><!--reverse link MetodoPago to Efectivo--><g id="link_MetodoPago_Efectivo"><path codeLine="42" d="M374.3696,659.7711 C389.5096,685.4211 404.58,710.97 419.73,736.66 " fill="none" id="MetodoPago-backto-Efectivo" style="stroke:#181818;stroke-width:1.0;"/><polygon fill="none" points="365.22,644.27,369.2026,662.821,379.5366,656.7213,365.22,644.27" style="stroke:#181818;stroke-width:1.0;"/></g><!--SRC=[NL91JiCm4Bpx5LOkd28L92uH89MM0WTGH2lkMtiRNBNUod5wWLxu3H9yW6j_majOft6IDZVlpCxCxaQje2pbAxxjVrIr8lak97_UR4XUosHOUPhlVyj4x8IgcIEokbAUNCEqj9uxhBbMk_rNZ_f03fo9aXE7gaAh30Jo23J8Yy5PnxvRRnoMqB2V6zbaLlKK7xbTrne7rgoEcKnWnSbNMCVIA3su9Ne8ZRBfd76IHHIVDTFTagMahh2rCg5s-VVvtTfDqMsDQYU8RMDJkT2u4p0llGFbvO7_X9uqvL1Gvng2n0aNdD1i8vX32KjqKNq4rXiDcXtE1wmjkfkawKrlxna7GOidU5nV9dDqdd658jO2tgsEAVTOUaCMHASQEF5WcPoQei8JjCsRoHTKLA1eAm5kDip-K81eNW5ejvZ9CMxGQkoZtSwQLlul5DbZxMvKZbRDqOfMz3XtxgXmi0PDaaczcKzLXYLncRr0z19SVQHfUxJJUZpVFm00]--></g></svg>